<?xml version="1.0" encoding="UTF-8"?>
<svg version="1.1" xmlns="http://www.w3.org/2000/svg" width="1024" height="1024">
<path d="M0 0 C1.97203903 -0.01052147 1.97203903 -0.01052147 3.98391724 -0.02125549 C8.20022065 -0.04064192 12.41646901 -0.04568897 16.6328125 -0.046875 C17.70982422 -0.04753778 17.70982422 -0.04753778 18.80859375 -0.04821396 C39.94430122 -0.05503721 60.79163308 0.20669255 81.7578125 3.203125 C83.0154541 3.36941406 84.2730957 3.53570312 85.56884766 3.70703125 C117.03781454 7.89927058 147.64784302 15.16019364 177.7578125 25.203125 C178.68045898 25.50573242 179.60310547 25.80833984 180.55371094 26.12011719 C223.04358293 40.10271296 263.96922114 60.78882993 300.7578125 86.203125 C301.4394043 86.67218262 302.12099609 87.14124023 302.82324219 87.62451172 C320.38370688 99.74578833 336.78882681 113.06176631 352.7578125 127.203125 C353.4379541 127.79843018 354.1180957 128.39373535 354.81884766 129.00708008 C361.8350926 135.21939587 368.47733078 141.76948905 375.09057617 148.40551758 C376.94923358 150.26955744 378.81320864 152.12816012 380.67773438 153.98632812 C386.58280535 159.8877556 392.39283426 165.79855974 397.7578125 172.203125 C398.66977041 173.25980771 399.58250046 174.31582465 400.49609375 175.37109375 C457.27257422 241.96930225 493.30351515 321.01657103 511.7578125 406.203125 C512.32800104 408.79290938 512.9016564 411.38188192 513.47729492 413.97045898 C513.784424 415.35358123 514.08934875 416.73719519 514.3918457 418.12133789 C515.19839659 421.79264303 516.05716162 425.44604225 516.96484375 429.09375 C519.27739958 438.41602103 521.33219626 447.73222403 522.9453125 457.203125 C523.1 458.09016113 523.2546875 458.97719727 523.4140625 459.89111328 C526.28488999 477.46244978 527.13966624 495.04964529 527.0703125 512.828125 C527.06815735 513.83158966 527.0660022 514.83505432 527.06378174 515.868927 C527.00899694 531.83172894 526.39256933 547.4277256 523.7578125 563.203125 C523.55913574 564.41355469 523.36045898 565.62398437 523.15576172 566.87109375 C518.80964894 592.62872995 511.99664531 617.29491114 502.32617188 641.55102539 C498.82658248 650.33742579 495.64409488 659.17190281 492.6328125 668.140625 C478.6093696 709.52925857 458.5995656 749.24331966 433.7578125 785.203125 C433.28875488 785.8847168 432.81969727 786.56630859 432.33642578 787.26855469 C420.21514917 804.82901938 406.89917119 821.23413931 392.7578125 837.203125 C392.16250732 837.8832666 391.56720215 838.5634082 390.95385742 839.26416016 C384.74154163 846.2804051 378.19144845 852.92264328 371.55541992 859.53588867 C369.69138006 861.39454608 367.83277738 863.25852114 365.97460938 865.12304688 C360.0731819 871.02811785 354.16237776 876.83814676 347.7578125 882.203125 C346.70112979 883.11508291 345.64511285 884.02781296 344.58984375 884.94140625 C275.19932653 944.09839312 189.61458497 984.13933453 81.7578125 1001.203125 C80.61231934 1001.36683594 79.46682617 1001.53054688 78.28662109 1001.69921875 C38.26676743 1007.27561408 -6.27724418 1006.91481193 -46.2421875 1001.203125 C-48.1286499 1000.95369141 -48.1286499 1000.95369141 -50.05322266 1000.69921875 C-81.52218954 996.50697942 -112.13221802 989.24605636 -142.2421875 979.203125 C-143.16483398 978.90051758 -144.08748047 978.59791016 -145.03808594 978.28613281 C-187.52795793 964.30353704 -228.45359614 943.61742007 -265.2421875 918.203125 C-265.9237793 917.73406738 -266.60537109 917.26500977 -267.30761719 916.78173828 C-284.86808188 904.66046167 -301.27320181 891.34448369 -317.2421875 877.203125 C-318.2623999 876.31016724 -318.2623999 876.31016724 -319.30322266 875.39916992 C-326.3194676 869.18685413 -332.96170578 862.63676095 -339.57495117 856.00073242 C-341.43360858 854.13669256 -343.29758364 852.27808988 -345.16210938 850.41992188 C-351.06718035 844.5184944 -356.87720926 838.60769026 -362.2421875 832.203125 C-363.15414541 831.14644229 -364.06687546 830.09042535 -364.98046875 829.03515625 C-432.16469506 750.22877243 -473.80320326 651.32607977 -483.6796875 462.203125 C-480.39738863 421.18769114 -472.25705227 381.22332407 -459.2421875 342.203125 C-458.93958008 341.28047852 -458.63697266 340.35783203 -458.32519531 339.40722656 C-439.48301664 282.150207 -408.80995529 228.41572873 -370.2421875 182.203125 C-369.76539551 181.62723633 -369.28860352 181.05134766 -368.79736328 180.45800781 C-368.33700684 179.90209961 -367.87665039 179.34619141 -367.40234375 178.7734375 C-366.80885132 178.05631592 -366.80885132 178.05631592 -366.20336914 177.32470703 C-356.42692677 165.71704192 -345.98707513 154.77843228 -335.24072266 144.07128906 C-333.47570206 142.3116902 -331.71617617 140.54672103 -329.95703125 138.78125 C-324.22212925 133.04262603 -318.45884985 127.42504994 -312.2421875 122.203125 C-311.18562363 121.29102941 -310.1296093 120.37829674 -309.07421875 119.46484375 C-230.18742526 52.21206638 -131.41854615 10.81711882 0 0 Z " fill="#04080C" transform="translate(493.2421875,8.796875)"/>
<path d="M0 0 C50.46902433 11.04009907 96.31583767 31.24962589 135 66 C135.54994629 66.48823242 136.09989258 66.97646484 136.66650391 67.47949219 C160.14081657 88.35931177 178.41458031 113.2470163 193 141 C193.34772461 141.6506543 193.69544922 142.30130859 194.05371094 142.97167969 C207.36296504 168.17486234 215.19448544 197.74912083 218 226 C218.11085938 227.09570312 218.22171875 228.19140625 218.3359375 229.3203125 C222.26247294 275.05914423 212.77357061 321.58833519 191 362 C190.65356445 362.65274902 190.30712891 363.30549805 189.95019531 363.97802734 C179.47311525 383.63333629 166.35467102 400.87830564 151 417 C150.14462646 417.898396 150.14462646 417.898396 149.27197266 418.81494141 C141.26899888 427.15810078 133.05020159 434.80345187 123.75927734 441.68945312 C121.97587587 443.01797091 120.21590484 444.37360037 118.45703125 445.734375 C104.1438833 456.67745004 88.31558198 465.41264518 72 473 C71.21963379 473.36335449 70.43926758 473.72670898 69.63525391 474.10107422 C34.14367231 490.41704341 -4.57186386 498.21624485 -43.5625 498.25 C-44.63007034 498.25101212 -44.63007034 498.25101212 -45.71920776 498.25204468 C-77.90631405 498.20419578 -108.14652667 491.66345703 -139 483 C-140.48106098 479.1019355 -139.49014557 476.34909773 -138.33544922 472.43652344 C-138.14452509 471.77944869 -137.95360096 471.12237394 -137.75689125 470.44538784 C-137.11557794 468.24716709 -136.46011868 466.05342394 -135.8046875 463.859375 C-135.34461487 462.29268408 -134.88544786 460.72572697 -134.42712402 459.15852356 C-133.43985763 455.78966403 -132.44635214 452.42273155 -131.44793701 449.05715942 C-129.85747814 443.69580084 -128.28050072 438.33053589 -126.70556641 432.96459961 C-124.80579729 426.49535279 -122.90271306 420.0270998 -120.99507713 413.56016827 C-117.82164507 402.80207719 -114.66778198 392.03843562 -111.53125 381.26953125 C-111.31578144 380.52981205 -111.10031288 379.79009285 -110.87831497 379.02795792 C-110.01705488 376.07091595 -109.15594548 373.11383019 -108.29509926 370.15666771 C-106.14271908 362.76298794 -103.98595596 355.37058899 -101.82878494 347.97830582 C-100.74997341 344.28131404 -99.67137893 340.58425893 -98.59277344 336.88720703 C-98.37927813 336.15543936 -98.16578281 335.42367168 -97.94581795 334.66972923 C-94.45406817 322.70139329 -90.96351497 310.7327083 -87.47280979 298.76406765 C-85.9379384 293.50145775 -84.402953 288.2388811 -82.86791992 282.97631836 C-78.74343097 268.83616602 -74.61957521 254.69582985 -70.49772263 240.55490875 C-61.26995933 208.89771142 -52.02707028 177.24500393 -42.76099014 145.59899902 C-35.11496527 119.48563691 -27.47259768 93.37121698 -19.85009766 67.25097656 C-18.96860916 64.23036718 -18.08677554 61.20985896 -17.20458984 58.18945312 C-15.97920426 53.99376324 -14.75485238 49.79777275 -13.53125 45.6015625 C-13.3390387 44.94260231 -13.14682739 44.28364212 -12.9487915 43.60471344 C-10.83372155 36.35027595 -8.73516817 29.09147695 -6.66796875 21.82324219 C-6.48084068 21.1657089 -6.29371262 20.50817562 -6.100914 19.83071709 C-5.21359286 16.71115166 -4.32905969 13.59083402 -3.44836426 10.46939087 C-2.98569153 8.83784561 -2.98569153 8.83784561 -2.51367188 7.17333984 C-2.24421753 6.21841644 -1.97476318 5.26349304 -1.69714355 4.27963257 C-1 2 -1 2 0 0 Z " fill="#152D49" transform="translate(718,272)"/>
<path d="M0 0 C50.46902433 11.04009907 96.31583767 31.24962589 135 66 C135.54994629 66.48823242 136.09989258 66.97646484 136.66650391 67.47949219 C160.14081657 88.35931177 178.41458031 113.2470163 193 141 C193.34772461 141.6506543 193.69544922 142.30130859 194.05371094 142.97167969 C207.36296504 168.17486234 215.19448544 197.74912083 218 226 C218.11085938 227.09570312 218.22171875 228.19140625 218.3359375 229.3203125 C222.26247294 275.05914423 212.77357061 321.58833519 191 362 C190.65356445 362.65274902 190.30712891 363.30549805 189.95019531 363.97802734 C179.47311525 383.63333629 166.35467102 400.87830564 151 417 C150.14462646 417.898396 150.14462646 417.898396 149.27197266 418.81494141 C141.26899888 427.15810078 133.05020159 434.80345187 123.75927734 441.68945312 C121.97587587 443.01797091 120.21590484 444.37360037 118.45703125 445.734375 C104.1438833 456.67745004 88.31558198 465.41264518 72 473 C71.21963379 473.36335449 70.43926758 473.72670898 69.63525391 474.10107422 C34.14367231 490.41704341 -4.57186386 498.21624485 -43.5625 498.25 C-44.63007034 498.25101212 -44.63007034 498.25101212 -45.71920776 498.25204468 C-77.90631405 498.20419578 -108.14652667 491.66345703 -139 483 C-140.48106098 479.1019355 -139.49014557 476.34909773 -138.33544922 472.43652344 C-138.14452509 471.77944869 -137.95360096 471.12237394 -137.75689125 470.44538784 C-137.11557794 468.24716709 -136.46011868 466.05342394 -135.8046875 463.859375 C-135.34461487 462.29268408 -134.88544786 460.72572697 -134.42712402 459.15852356 C-133.43985763 455.78966403 -132.44635214 452.42273155 -131.44793701 449.05715942 C-129.85747814 443.69580084 -128.28050072 438.33053589 -126.70556641 432.96459961 C-124.80579729 426.49535279 -122.90271306 420.0270998 -120.99507713 413.56016827 C-117.82164507 402.80207719 -114.66778198 392.03843562 -111.53125 381.26953125 C-111.31578144 380.52981205 -111.10031288 379.79009285 -110.87831497 379.02795792 C-110.01705488 376.07091595 -109.15594548 373.11383019 -108.29509926 370.15666771 C-106.14271908 362.76298794 -103.98595596 355.37058899 -101.82878494 347.97830582 C-100.74997341 344.28131404 -99.67137893 340.58425893 -98.59277344 336.88720703 C-98.37927813 336.15543936 -98.16578281 335.42367168 -97.94581795 334.66972923 C-94.45406817 322.70139329 -90.96351497 310.7327083 -87.47280979 298.76406765 C-85.9379384 293.50145775 -84.402953 288.2388811 -82.86791992 282.97631836 C-78.74343097 268.83616602 -74.61957521 254.69582985 -70.49772263 240.55490875 C-61.26995933 208.89771142 -52.02707028 177.24500393 -42.76099014 145.59899902 C-35.11496527 119.48563691 -27.47259768 93.37121698 -19.85009766 67.25097656 C-18.96860916 64.23036718 -18.08677554 61.20985896 -17.20458984 58.18945312 C-15.97920426 53.99376324 -14.75485238 49.79777275 -13.53125 45.6015625 C-13.3390387 44.94260231 -13.14682739 44.28364212 -12.9487915 43.60471344 C-10.83372155 36.35027595 -8.73516817 29.09147695 -6.66796875 21.82324219 C-6.48084068 21.1657089 -6.29371262 20.50817562 -6.100914 19.83071709 C-5.21359286 16.71115166 -4.32905969 13.59083402 -3.44836426 10.46939087 C-2.98569153 8.83784561 -2.98569153 8.83784561 -2.51367188 7.17333984 C-2.24421753 6.21841644 -1.97476318 5.26349304 -1.69714355 4.27963257 C-1 2 -1 2 0 0 Z M32 59 C30.0095246 64.16841852 28.22545769 69.33477808 26.69775391 74.66015625 C26.48674419 75.38607027 26.27573448 76.11198429 26.05833054 76.85989571 C25.36146703 79.2599221 24.66902382 81.66120014 23.9765625 84.0625 C23.47844602 85.78107873 22.98003593 87.49957239 22.48135376 89.21798706 C21.4161793 92.8905629 20.35290182 96.56368042 19.2911377 100.23724365 C17.60579411 106.06810063 15.91611853 111.89769643 14.22558594 117.72705078 C12.49368307 123.69956118 10.76190745 129.67210788 9.03149414 135.64505005 C4.00355363 152.99915931 -1.0490423 170.34600615 -6.11215973 187.68988037 C-7.1829703 191.35827401 -8.25333352 195.02679816 -9.32373047 198.6953125 C-10.81645101 203.81109957 -12.30930378 208.92684802 -13.80233192 214.04254532 C-17.71143851 227.43676049 -21.6180041 240.83171662 -25.52454662 254.2266798 C-27.05893644 259.4878343 -28.59351288 264.74893435 -30.12817383 270.01000977 C-34.05739519 283.48024227 -37.9860468 296.95063955 -41.91151428 310.42196655 C-43.43506159 315.65041233 -44.95905428 320.87872827 -46.48311901 326.10702324 C-47.56377886 329.81436257 -48.64416917 333.52178005 -49.72396851 337.22937012 C-54.59636544 353.95870001 -59.48973196 370.68156435 -64.42403221 387.39275169 C-65.20442024 390.03651487 -65.98410612 392.68048396 -66.76350403 395.32453918 C-67.01761897 396.1865969 -67.27173391 397.04865461 -67.53354931 397.93683529 C-68.04229295 399.66279038 -68.55100149 401.38875581 -69.05967426 403.11473179 C-70.5452735 408.15379892 -72.03582664 413.19136757 -73.53002548 418.22789097 C-74.45008924 421.333108 -75.36574 424.43961357 -76.28021622 427.54648018 C-76.70643274 428.99097745 -77.13455433 430.43491415 -77.56469345 431.87824821 C-78.1526717 433.85197581 -78.7339877 435.82754854 -79.3137207 437.80371094 C-79.64120804 438.91002869 -79.96869537 440.01634644 -80.30610657 441.15618896 C-81.15803119 444.15979172 -81.15803119 444.15979172 -81 448 C-79.72125 448.309375 -78.4425 448.61875 -77.125 448.9375 C-76.04605469 449.19853516 -76.04605469 449.19853516 -74.9453125 449.46484375 C-20.58580372 459.34183672 40.00527279 442.66012385 85 412 C92.64617662 406.6490957 99.68148156 400.65655913 106.51171875 394.30078125 C108.67179288 392.30347565 110.87547945 390.39456662 113.125 388.5 C137.37682685 367.30429768 154.83707235 335.4740808 164 305 C164.20560547 304.32533691 164.41121094 303.65067383 164.62304688 302.95556641 C179.1725824 254.39587923 172.34776443 202.45061901 148.88305664 157.84814453 C138.98985219 139.71031198 126.13012134 123.99351177 112 109 C111.31035156 108.2678125 110.62070312 107.535625 109.91015625 106.78125 C104.660339 101.37039541 98.94005968 96.63339674 93 92 C92.4548877 91.57315918 91.90977539 91.14631836 91.34814453 90.70654297 C63.97369889 69.25917247 63.97369889 69.25917247 32 59 Z " fill="#BAE8F9" transform="translate(718,272)"/>
<path d="M0 0 C0.66 0 1.32 0 2 0 C3.29003906 1.45849609 3.29003906 1.45849609 4.765625 3.5234375 C5.59513672 4.67017944 5.59513672 4.67017944 6.44140625 5.84008789 C7.03824219 6.67660889 7.63507813 7.51312988 8.25 8.375 C9.52406755 10.13294285 10.80016051 11.8894193 12.078125 13.64453125 C12.73103516 14.54123535 13.38394531 15.43793945 14.05664062 16.36181641 C16.96937004 20.31595637 19.97363658 24.1949799 23 28.0625 C23.57580811 28.79895752 24.15161621 29.53541504 24.74487305 30.29418945 C25.91107069 31.78392444 27.0779802 33.27310244 28.24560547 34.76171875 C31.193017 38.52206789 34.12828244 42.29185152 37.0625 46.0625 C37.64257812 46.80765869 38.22265625 47.55281738 38.8203125 48.32055664 C43.28096155 54.05790433 47.69904237 59.8268573 52.10571289 65.60571289 C56.04076141 70.76052521 60.01248289 75.88569554 64 81 C70.22928267 88.99044564 76.39127433 97.03062359 82.53759766 105.08496094 C88.58678327 113.00646543 94.68698773 120.88746449 100.8125 128.75 C105.94685374 135.3403956 111.03905023 141.96122212 116.10473633 148.60449219 C120.04016947 153.75966554 124.01212783 158.88531185 128 164 C133.07316176 170.50663793 138.10267161 177.04462287 143.10546875 183.60546875 C147.04067538 188.76030359 151.01241263 193.88560544 155 199 C161.22928267 206.99044564 167.39127433 215.03062359 173.53759766 223.08496094 C178.99790056 230.23531418 184.49085862 237.35997629 190.02587891 244.45263672 C191.21577525 245.98268928 192.40037047 247.51687938 193.57958984 249.05517578 C196.58200891 252.96202726 199.63956972 256.76915973 202.890625 260.47265625 C211.83298513 270.88215867 211.83298513 270.88215867 212.28125 276.56640625 C211.54050138 279.97626539 210.46146033 282.83627053 209 286 C208.34396977 287.82970931 207.69777966 289.66298297 207.0625 291.5 C206.7221875 292.39332031 206.381875 293.28664063 206.03125 294.20703125 C204.53639735 298.2555905 203.30864323 302.37436538 202.05859375 306.50390625 C200.93419362 310.21733105 199.7839885 313.92226939 198.625 317.625 C198.41681641 318.29063965 198.20863281 318.9562793 197.99414062 319.64208984 C195.59928645 327.29151456 193.18270835 334.93408234 190.76611328 342.57666016 C190.00899731 344.97154007 189.25242407 347.36659062 188.49609375 349.76171875 C188.24899658 350.54417969 188.00189941 351.32664062 187.74731445 352.1328125 C187.24953763 353.70956654 186.75197864 355.28638936 186.25463867 356.86328125 C184.9855068 360.88600197 183.71176765 364.90716695 182.4296875 368.92578125 C179.46229559 378.24353995 176.6134544 387.57619089 174 397 C173.01 397 172.02 397 171 397 C169.09043811 394.94283912 167.39191327 392.90668951 165.6875 390.6875 C165.16333496 390.01887939 164.63916992 389.35025879 164.09912109 388.66137695 C159.39809397 382.62066096 154.87289018 376.44984971 150.35864258 370.26904297 C145.72638249 363.9389862 140.94825381 357.73652716 136.11206055 351.56152344 C131.82298103 346.07852682 127.62290887 340.5357882 123.45947266 334.95703125 C119.92053129 330.21819132 116.34696415 325.50743856 112.75 320.8125 C111.95239258 319.77125977 111.95239258 319.77125977 111.13867188 318.70898438 C110.02168238 317.25094956 108.9046566 315.79294255 107.78759766 314.33496094 C99.26025003 303.19653527 90.75907597 292.03931076 82.3581543 280.80517578 C77.21987111 273.94200273 72.00179338 267.14051183 66.78759766 260.33496094 C58.26025003 249.19653527 49.75907597 238.03931076 41.3581543 226.80517578 C36.21548443 219.93614346 30.99300088 213.12879131 25.77441406 206.31738281 C16.53085273 194.24530188 7.33714814 182.13785005 -1.77246094 169.96435547 C-6.35571887 163.84481677 -10.99523137 157.77294218 -15.67089844 151.72363281 C-18.37343338 148.21887589 -21.06110336 144.70272376 -23.75 141.1875 C-24.28125488 140.49374268 -24.81250977 139.79998535 -25.35986328 139.08520508 C-26.39367469 137.73355887 -27.42129635 136.37715381 -28.44238281 135.01586914 C-29.51038902 133.63365484 -30.62224576 132.28455481 -31.76855469 130.96655273 C-36.01973259 125.91263231 -36.01973259 125.91263231 -35.921875 121.38671875 C-35.53515625 120.16597656 -35.1484375 118.94523437 -34.75 117.6875 C-34.54616699 117.00510254 -34.34233398 116.32270508 -34.13232422 115.61962891 C-33.45907437 113.39935818 -32.73265334 111.20131204 -32 109 C-31.52589638 107.50477526 -31.05456488 106.00866886 -30.5859375 104.51171875 C-29.84878334 102.16529845 -29.10747146 99.82066984 -28.35229492 97.47998047 C-26.41915131 91.46615625 -24.69882832 85.41327109 -23.0625 79.3125 C-20.79973964 70.885314 -18.42806156 62.49842223 -15.96826172 54.12670898 C-14.02231895 47.50320232 -12.09368346 40.87498302 -10.1796875 34.2421875 C-9.93355209 33.38965393 -9.68741669 32.53712036 -9.43382263 31.65875244 C-8.43913303 28.21315205 -7.44453858 24.76752618 -6.45205688 21.32128906 C-5.75428831 18.89877138 -5.05500502 16.47669523 -4.35546875 14.0546875 C-4.14739594 13.33062714 -3.93932312 12.60656677 -3.72494507 11.86056519 C-2.5721085 7.87422248 -1.34136356 3.92693495 0 0 Z " fill="#0192FE" transform="translate(304,228)"/>
<path d="M0 0 C3.03295797 1.31781802 4.71216848 2.55199821 6.62890625 5.23828125 C7.10142822 5.88764648 7.5739502 6.53701172 8.06079102 7.20605469 C8.55635498 7.90118164 9.05191895 8.59630859 9.5625 9.3125 C14.36386775 15.89306235 19.39717822 22.16735699 24.72265625 28.328125 C30 34.51972556 30 34.51972556 30 38 C30.99 38.33 31.98 38.66 33 39 C34.73896019 41.02927074 36.34892353 43.04658045 37.9375 45.1875 C38.36740234 45.75275391 38.79730469 46.31800781 39.24023438 46.90039062 C47 57.18001944 47 57.18001944 47 60 C47.99 60.33 48.98 60.66 50 61 C54 66.37142857 54 66.37142857 54 69 C54.99 69.33 55.98 69.66 57 70 C58.76171875 72.15234375 58.76171875 72.15234375 60.6875 74.9375 C64.08627372 79.76501748 67.6649203 84.3631916 71.43359375 88.90625 C73 91 73 91 74 94 C73.43468127 96.58729301 72.79021327 99.06356355 72.04418945 101.59912109 C71.82240398 102.37790021 71.60061852 103.15667933 71.37211227 103.95905781 C70.62734057 106.56627021 69.8703263 109.16976472 69.11328125 111.7734375 C68.58361692 113.61802113 68.05469643 115.4628185 67.526474 117.30781555 C66.09709543 122.292141 64.65704118 127.27332505 63.21498108 132.25399399 C61.70009093 137.49286421 60.19490541 142.73452193 58.68847656 147.97583008 C55.40186579 159.40353758 52.10108216 170.82711967 48.79581451 182.24944305 C47.83716083 185.5628176 46.87927535 188.87641385 45.92147732 192.19003582 C42.59091557 203.71205479 39.25476168 215.23244335 35.90795898 226.74975586 C28.19276711 253.30151958 20.53344855 279.86932128 12.875 306.4375 C-1.64689265 356.81556933 -1.64689265 356.81556933 -7.67578125 377.5625 C-7.88710442 378.28978868 -8.09842758 379.01707737 -8.31615448 379.76640511 C-10.37774334 386.86072159 -12.44210918 393.95422227 -14.51025391 401.04663086 C-15.15153582 403.24848605 -15.79265518 405.45038859 -16.43359375 407.65234375 C-16.73315979 408.68020493 -17.03272583 409.7080661 -17.34136963 410.76707458 C-18.9010368 416.13889548 -20.42719902 421.51832312 -21.91455078 426.91064453 C-22.38550926 428.61481285 -22.38550926 428.61481285 -22.86598206 430.35340881 C-23.4595809 432.50907357 -24.04887151 434.66593143 -24.63291931 436.82420349 C-26.08259084 442.09371476 -27.69416421 447.04208471 -30 452 C-33.97409353 448.42202286 -36.67892549 444.21968787 -39.5859375 439.78125 C-40.11963959 438.97513275 -40.65334167 438.1690155 -41.20321655 437.33847046 C-42.34193932 435.61800418 -43.47869457 433.89623432 -44.61364746 432.17327881 C-47.5576508 427.70504115 -50.51673593 423.24682878 -53.4765625 418.7890625 C-54.05245117 417.92129181 -54.62833984 417.05352112 -55.22167969 416.15945435 C-59.82529904 409.23464954 -64.5403168 402.40136331 -69.3503418 395.61816406 C-74.01032929 389.03335156 -78.49239271 382.33713962 -82.93310547 375.6027832 C-85.6669565 371.46378733 -88.43029494 367.3611644 -91.32421875 363.33203125 C-92.0982605 362.24583496 -92.0982605 362.24583496 -92.88793945 361.13769531 C-93.84722777 359.79900697 -94.81768197 358.46821669 -95.80151367 357.14746094 C-98.67180998 353.12544528 -99.42425346 350.87856646 -99 346 C-98.21183443 342.5976101 -97.18487842 339.27783178 -96.15625 335.94140625 C-95.50743871 333.7780084 -94.86042199 331.61407185 -94.21484375 329.44970703 C-93.68189697 327.66877655 -93.68189697 327.66877655 -93.13818359 325.85186768 C-91.23948983 319.46038078 -89.44063871 313.04006929 -87.6305542 306.62305832 C-86.9633052 304.25804507 -86.29461501 301.8934438 -85.62548828 299.52896118 C-83.78676865 293.03089534 -81.9499477 286.53229499 -80.11572266 280.03295898 C-78.75658184 275.21792084 -77.39516301 270.40353232 -76.03125 265.58984375 C-75.81169144 264.81489941 -75.59213287 264.03995506 -75.36592102 263.24152756 C-72.42381152 252.87013294 -69.38467036 242.53507793 -66.20800781 232.23265076 C-64.14369704 225.52809105 -62.25841027 218.7915742 -60.5 212 C-58.07843003 202.82439133 -55.44028348 193.74528746 -52.625 184.68359375 C-50.41115552 177.49848241 -48.42215091 170.26813311 -46.5 163 C-44.32573983 154.77857874 -42.02305445 146.62123555 -39.5 138.5 C-36.61673418 129.21790034 -34.04381225 119.87526259 -31.5546875 110.48046875 C-29.60179839 103.14180923 -27.49319913 95.86956011 -25.26708984 88.60986328 C-23.21031687 81.84219777 -21.37393229 75.02445461 -19.5625 68.1875 C-17.11668817 58.96452675 -14.46878074 49.83259606 -11.63623047 40.72167969 C-8.97038654 32.07383218 -6.61394367 23.3516462 -4.30859375 14.6015625 C-3.00902611 9.67914356 -1.70594724 4.80161736 0 0 Z " fill="#0797FD" transform="translate(593,286)"/>
<path d="M0 0 C3.22874535 1.07624845 3.66265782 1.52211051 5.56640625 4.140625 C6.0464209 4.79208496 6.52643555 5.44354492 7.02099609 6.11474609 C7.78404053 7.17169678 7.78404053 7.17169678 8.5625 8.25 C9.64907695 9.72705019 10.73632502 11.20360689 11.82421875 12.6796875 C12.36353027 13.41541992 12.9028418 14.15115234 13.45849609 14.90917969 C20.05593658 23.85762446 26.989477 32.5643363 33.81884766 41.33618164 C39.6933497 48.88396359 45.52158798 56.46646966 51.34375 64.0546875 C52.53484375 65.60542969 52.53484375 65.60542969 53.75 67.1875 C54.14453369 67.70691162 54.53906738 68.22632324 54.94555664 68.76147461 C57.48722571 72.09308824 60.10315858 75.34771996 62.77734375 78.57421875 C63.74752441 79.76591675 63.74752441 79.76591675 64.73730469 80.98168945 C66.01481967 82.54947605 67.30800603 84.10465169 68.61816406 85.64526367 C72.98391333 91.05303123 72.98391333 91.05303123 73.05859375 95.44921875 C72.70925781 96.62097656 72.35992187 97.79273438 72 99 C71.81622803 99.70157227 71.63245605 100.40314453 71.44311523 101.12597656 C70.79802855 103.5776691 70.09211839 106.00593404 69.375 108.4375 C68.97958008 109.7997168 68.97958008 109.7997168 68.57617188 111.18945312 C67.72210528 114.12768223 66.8613344 117.06389401 66 120 C65.41890762 121.99077943 64.8381797 123.98166529 64.2578125 125.97265625 C63.37359846 129.00530339 62.4889443 132.03781674 61.60253906 135.06982422 C59.50921907 142.23365588 57.44848923 149.40617918 55.40795898 156.58520508 C53.9154715 161.82572186 52.4013064 167.05942721 50.87109375 172.2890625 C50.1011412 174.92175201 49.33161128 177.5545646 48.5625 180.1875 C48.36951324 180.84803375 48.17652649 181.5085675 47.97769165 182.18911743 C45.30623708 191.34673469 42.75403963 200.52785411 40.3125 209.75 C38.17280073 217.83148423 35.85507664 225.80916915 33.2644043 233.7565918 C31.15785654 240.3011186 29.3771466 246.91534296 27.625 253.5625 C25.28229797 262.44394371 22.75032665 271.23626973 20 280 C17.27670189 288.6818613 14.76015563 297.38991868 12.4375 306.1875 C9.76658344 316.30163255 6.83256838 326.3054479 3.75 336.30078125 C-0.98401919 351.65728433 -5.32464027 367.10874164 -9.4453125 382.63989258 C-11.34589287 389.74096796 -13.44885563 396.74072408 -15.72631836 403.72851562 C-18.94693791 413.73823115 -21.52495733 423.93080355 -24.22021484 434.09130859 C-25.73710017 439.74947134 -27.35431031 445.37807869 -29 451 C-29.99 451 -30.98 451 -32 451 C-33.53450924 449.13345905 -34.83632287 447.3250472 -36.1484375 445.30859375 C-36.75511765 444.403619 -36.75511765 444.403619 -37.37405396 443.48036194 C-38.7172431 441.47226123 -40.04585327 439.45491697 -41.375 437.4375 C-42.3172701 436.02401284 -43.26064657 434.61126264 -44.20507812 433.19921875 C-46.16935907 430.26050039 -48.12880358 427.31864319 -50.08496094 424.37451172 C-54.08837122 418.35679756 -58.14897225 412.3781196 -62.21029663 406.39941406 C-64.37088261 403.21740533 -66.52697822 400.03235665 -68.68359375 396.84765625 C-71.91291897 392.08024177 -75.14291261 387.31328056 -78.37332153 382.54660034 C-80.30482101 379.69650816 -82.23615701 376.84630521 -84.16748047 373.99609375 C-85.08683234 372.63943029 -86.00626402 371.28282092 -86.92578125 369.92626953 C-88.20202611 368.04343188 -89.47799393 366.16040676 -90.75390625 364.27734375 C-91.47908447 363.20734131 -92.2042627 362.13733887 -92.95141602 361.03491211 C-93.62744873 360.03339111 -94.30348145 359.03187012 -95 358 C-95.74757568 357.00427979 -96.49515137 356.00855957 -97.26538086 354.98266602 C-99.59952658 350.96911805 -99.57726119 348.48171482 -98.5355835 344.00341797 C-97.8444997 341.46351503 -97.08086167 338.95272512 -96.3046875 336.4375 C-95.65555011 334.2726374 -95.00824984 332.10722349 -94.36230469 329.94140625 C-93.99165894 328.70277832 -93.62101318 327.46415039 -93.23913574 326.18798828 C-91.02023595 318.72352342 -88.89996579 311.23013763 -86.76331329 303.74182129 C-85.93654218 300.84426294 -85.10875548 297.94699643 -84.28070068 295.04980469 C-83.13930833 291.05595868 -81.9983975 287.06197563 -80.85791016 283.06787109 C-79.42131745 278.03696351 -77.98353846 273.00639588 -76.54542923 267.97592163 C-71.18196885 249.21285412 -65.83037213 230.44698457 -60.5655098 211.65598869 C-57.99910459 202.49976218 -55.37104862 193.3638994 -52.69223022 184.24000549 C-50.2131036 175.77705585 -47.80387807 167.29488984 -45.40625 158.80859375 C-45.20675751 158.10286854 -45.00726501 157.39714333 -44.80172729 156.6700325 C-42.95253981 150.12809805 -41.10524191 143.58563174 -39.26123047 137.04223633 C-38.0411265 132.71367844 -36.81869457 128.38578431 -35.59375 124.05859375 C-35.39600479 123.35999615 -35.19825958 122.66139854 -34.99452209 121.94163132 C-32.19441735 112.0632043 -29.28157433 102.22411284 -26.2590332 92.41123962 C-24.1793697 85.64661432 -22.27391356 78.85153243 -20.5 72 C-18.35199266 63.85979916 -16.06797397 55.78724261 -13.5625 47.75 C-10.29195707 37.25386066 -7.44248206 26.65889008 -4.66430664 16.02441406 C-4.34582764 14.80850586 -4.02734863 13.59259766 -3.69921875 12.33984375 C-3.41908936 11.26081787 -3.13895996 10.18179199 -2.8503418 9.07006836 C-2.00173968 6.00628092 -1.03202809 3.00644075 0 0 Z " fill="#0293FE" transform="translate(263,373)"/>
<path d="M0 0 C0.66 0 1.32 0 2 0 C3.64521586 2.45128139 5.18029343 4.90316214 6.6875 7.4375 C10.72126488 14.08896666 10.72126488 14.08896666 15.375 20.3125 C20.81155214 27.00165441 25.12504198 34.52815061 29.64208984 41.85058594 C30.76891478 43.63421893 31.96416291 45.37440817 33.17578125 47.1015625 C37.01257841 52.65830321 37.01257841 52.65830321 36.9765625 56.5 C36.49566367 59.08581666 35.79764757 61.49538663 35 64 C34.65321876 65.60131339 34.31927619 67.2054765 34 68.8125 C33.51804244 71.10610161 32.94810808 73.12696815 32.05957031 75.30102539 C31.02207409 77.94377211 30.22845943 80.55045928 29.484375 83.2890625 C29.2056958 84.30371582 28.9270166 85.31836914 28.63989258 86.36376953 C28.34622803 87.43997559 28.05256348 88.51618164 27.75 89.625 C25.57573959 97.5066227 23.32433974 105.344127 20.8125 113.125 C19.10795045 118.40954322 17.51079372 123.68271565 16.125 129.0625 C13.99508333 137.29579133 11.44921139 145.39278215 8.92895508 153.51367188 C6.84519533 160.2340289 4.82395563 166.96029837 2.921875 173.734375 C1.83000605 177.60218195 0.69916039 181.45766319 -0.4375 185.3125 C-0.64785889 186.02680176 -0.85821777 186.74110352 -1.07495117 187.47705078 C-2.13118677 191.06123979 -3.1908873 194.64437979 -4.25390625 198.2265625 C-6.13029815 204.56214455 -7.98341677 210.89981131 -9.72241211 217.2746582 C-11.96308025 225.48735124 -14.4056125 233.62227851 -16.9375 241.75 C-19.76924591 250.84226471 -22.39933981 259.96177885 -24.85131836 269.16308594 C-26.62771506 275.77646909 -28.63573462 282.28934849 -30.74609375 288.80273438 C-33.00235038 295.83729366 -34.94716151 302.94450935 -36.8203125 310.08984375 C-38.33490759 315.80399795 -40.11147093 321.38188038 -42.00927734 326.97973633 C-43.59520554 331.81451153 -44.91588746 336.71596072 -46.25 341.625 C-48.70283124 350.52968336 -51.30903468 359.37128029 -54.0625 368.1875 C-56.85499863 377.13403586 -59.43854172 386.10917436 -61.85180664 395.16479492 C-63.62798157 401.77762154 -65.63591852 408.28991606 -67.74609375 414.80273438 C-70.00235038 421.83729366 -71.94716151 428.94450935 -73.8203125 436.08984375 C-75.3337233 441.79952996 -77.10854854 447.37308426 -79.00488281 452.96655273 C-80.61279613 457.86800588 -81.95643078 462.83664918 -83.3125 467.8125 C-85.84328031 476.97249027 -88.5020054 486.08092363 -91.29516602 495.1640625 C-94.33755637 505.06310715 -97.27003534 514.99390342 -100.203125 524.92578125 C-101.78691262 530.28844542 -103.38767536 535.64585119 -105 541 C-105.99 541 -106.98 541 -108 541 C-109.18359375 539.48046875 -109.18359375 539.48046875 -110.4375 537.1875 C-113.33221095 532.10393127 -116.41077849 527.17583571 -119.5625 522.25 C-124.73375082 514.1221143 -129.68226356 505.87597705 -134.54711914 497.56152344 C-135.05621826 496.69172852 -135.56531738 495.82193359 -136.08984375 494.92578125 C-136.57485352 494.09135498 -137.05986328 493.25692871 -137.55957031 492.3972168 C-138.94149014 490.09737428 -140.4193827 487.88880241 -141.91796875 485.6640625 C-143.47830532 483.18735268 -143.9913378 482.27364683 -144.0859375 479.28515625 C-143.85132813 478.55167969 -143.61671875 477.81820313 -143.375 477.0625 C-143.04628906 475.93521484 -143.04628906 475.93521484 -142.7109375 474.78515625 C-142 473 -142 473 -141 472 C-140.62267648 470.00423925 -140.27503783 468.0028735 -139.9375 466 C-138.40867302 457.73006528 -135.81168254 449.87212736 -133.1875 441.89526367 C-130.73926391 434.41534599 -128.51392718 426.90362485 -126.4375 419.3125 C-124.29100969 411.48133517 -122.01053915 403.72226478 -119.5 396 C-117.01762125 388.35926163 -114.75203369 380.684586 -112.625 372.9375 C-110.43775738 364.97394847 -108.12819046 357.06403883 -105.65478516 349.18432617 C-104.88727166 346.7355849 -104.12906515 344.28390635 -103.38037109 341.8293457 C-101.55913312 335.86664608 -99.64954237 329.98011131 -97.484375 324.1328125 C-93.55646909 314.18059039 -93.55646909 314.18059039 -93.56201172 303.77734375 C-95.64486695 299.47045849 -98.81324751 296.25953193 -102.1796875 292.92089844 C-105.57398428 289.33904127 -108.3223842 285.257264 -111.1875 281.25 C-112.36971334 279.63605249 -113.55453583 278.02401234 -114.7421875 276.4140625 C-115.5770166 275.27952637 -115.5770166 275.27952637 -116.42871094 274.12207031 C-117.81778244 272.24608997 -119.22046181 270.3819099 -120.6328125 268.5234375 C-121.35210937 267.56695312 -122.07140625 266.61046875 -122.8125 265.625 C-123.41707031 264.83351563 -124.02164063 264.04203125 -124.64453125 263.2265625 C-126.71684102 259.82248018 -127.20459806 257.15386026 -126.50610352 253.21459961 C-126.21662842 252.20405518 -125.92715332 251.19351074 -125.62890625 250.15234375 C-125.30575439 249.0032251 -124.98260254 247.85410645 -124.6496582 246.67016602 C-124.290896 245.43838623 -123.93213379 244.20660645 -123.5625 242.9375 C-123.19462399 241.6473196 -122.82769486 240.35686888 -122.46166992 239.06616211 C-121.69972586 236.38580823 -120.93131344 233.70742711 -120.15820312 231.03027344 C-119.0375461 227.14309684 -117.94623484 223.24832808 -116.859375 219.3515625 C-113.95313182 208.97516742 -111.03430138 198.71308674 -107.21875 188.6328125 C-105.17678536 182.54618714 -103.67301376 176.31117627 -102.14208984 170.07885742 C-100.8235632 164.79255065 -99.31942351 159.93392162 -97 155 C-93.11975621 158.59868415 -90.33422599 162.75053685 -87.44335938 167.13476562 C-84.94111483 170.85127095 -82.16568097 173.84925149 -79 177 C-77.51635363 179.00838305 -76.08019299 181.05250989 -74.6875 183.125 C-73.91259612 184.26769948 -73.13653005 185.40961161 -72.359375 186.55078125 C-71.97072266 187.1226416 -71.58207031 187.69450195 -71.18164062 188.28369141 C-68.21664047 192.59029287 -65.09756033 196.78833077 -62 201 C-59.98178086 195.73841071 -58.14691985 190.47373222 -56.51171875 185.08203125 C-56.28794052 184.35076019 -56.06416229 183.61948914 -55.83360291 182.86605835 C-55.11546976 180.51570538 -54.40132005 178.16416612 -53.6875 175.8125 C-53.19126977 174.18464368 -52.69501311 172.55679542 -52.19873047 170.92895508 C-49.34391407 161.54403685 -46.57316722 152.14057076 -43.92651367 142.69458008 C-42.23281083 136.69087036 -40.2885899 130.81051819 -38.2734375 124.90625 C-36.74323594 120.31325812 -35.43778315 115.6588996 -34.125 111 C-30.17979969 97.00752071 -25.9050522 83.12054346 -21.58984375 69.23828125 C-21.38515976 68.57964081 -21.18047577 67.92100037 -20.96958923 67.24240112 C-19.95925815 63.99232966 -18.94728516 60.74278457 -17.93237305 57.49414062 C-17.56539307 56.31658203 -17.19841309 55.13902344 -16.8203125 53.92578125 C-16.49305176 52.87817627 -16.16579102 51.83057129 -15.82861328 50.7512207 C-15.15351428 48.50970904 -14.5396803 46.27709607 -14 44 C-13.34 44 -12.68 44 -12 44 C-11.83757812 42.27910156 -11.83757812 42.27910156 -11.671875 40.5234375 C-11.10133316 35.98104669 -9.78814672 31.92047408 -8.25 27.625 C-5.09428814 18.5193963 -2.48642744 9.30760007 0 0 Z " fill="#B6E4F4" transform="translate(260,168)"/>
<path d="M0 0 C50.46902433 11.04009907 96.31583767 31.24962589 135 66 C135.54994629 66.48823242 136.09989258 66.97646484 136.66650391 67.47949219 C160.14081657 88.35931177 178.41458031 113.2470163 193 141 C193.34772461 141.6506543 193.69544922 142.30130859 194.05371094 142.97167969 C207.36296504 168.17486234 215.19448544 197.74912083 218 226 C218.11085938 227.09570312 218.22171875 228.19140625 218.3359375 229.3203125 C222.26247294 275.05914423 212.77357061 321.58833519 191 362 C190.65356445 362.65274902 190.30712891 363.30549805 189.95019531 363.97802734 C179.47311525 383.63333629 166.35467102 400.87830564 151 417 C150.14462646 417.898396 150.14462646 417.898396 149.27197266 418.81494141 C141.26899888 427.15810078 133.05020159 434.80345187 123.75927734 441.68945312 C121.97587587 443.01797091 120.21590484 444.37360037 118.45703125 445.734375 C104.1438833 456.67745004 88.31558198 465.41264518 72 473 C71.21963379 473.36335449 70.43926758 473.72670898 69.63525391 474.10107422 C34.14367231 490.41704341 -4.57186386 498.21624485 -43.5625 498.25 C-44.63007034 498.25101212 -44.63007034 498.25101212 -45.71920776 498.25204468 C-77.90631405 498.20419578 -108.14652667 491.66345703 -139 483 C-140.48106098 479.1019355 -139.49014557 476.34909773 -138.33544922 472.43652344 C-138.14452509 471.77944869 -137.95360096 471.12237394 -137.75689125 470.44538784 C-137.11557794 468.24716709 -136.46011868 466.05342394 -135.8046875 463.859375 C-135.34461487 462.29268408 -134.88544786 460.72572697 -134.42712402 459.15852356 C-133.43985763 455.78966403 -132.44635214 452.42273155 -131.44793701 449.05715942 C-129.85747814 443.69580084 -128.28050072 438.33053589 -126.70556641 432.96459961 C-124.80579729 426.49535279 -122.90271306 420.0270998 -120.99507713 413.56016827 C-117.82164507 402.80207719 -114.66778198 392.03843562 -111.53125 381.26953125 C-111.31578144 380.52981205 -111.10031288 379.79009285 -110.87831497 379.02795792 C-110.01705488 376.07091595 -109.15594548 373.11383019 -108.29509926 370.15666771 C-106.14271908 362.76298794 -103.98595596 355.37058899 -101.82878494 347.97830582 C-100.74997341 344.28131404 -99.67137893 340.58425893 -98.59277344 336.88720703 C-98.37927813 336.15543936 -98.16578281 335.42367168 -97.94581795 334.66972923 C-94.45406817 322.70139329 -90.96351497 310.7327083 -87.47280979 298.76406765 C-85.9379384 293.50145775 -84.402953 288.2388811 -82.86791992 282.97631836 C-78.74343097 268.83616602 -74.61957521 254.69582985 -70.49772263 240.55490875 C-61.26995933 208.89771142 -52.02707028 177.24500393 -42.76099014 145.59899902 C-35.11496527 119.48563691 -27.47259768 93.37121698 -19.85009766 67.25097656 C-18.96860916 64.23036718 -18.08677554 61.20985896 -17.20458984 58.18945312 C-15.97920426 53.99376324 -14.75485238 49.79777275 -13.53125 45.6015625 C-13.3390387 44.94260231 -13.14682739 44.28364212 -12.9487915 43.60471344 C-10.83372155 36.35027595 -8.73516817 29.09147695 -6.66796875 21.82324219 C-6.48084068 21.1657089 -6.29371262 20.50817562 -6.100914 19.83071709 C-5.21359286 16.71115166 -4.32905969 13.59083402 -3.44836426 10.46939087 C-2.98569153 8.83784561 -2.98569153 8.83784561 -2.51367188 7.17333984 C-2.24421753 6.21841644 -1.97476318 5.26349304 -1.69714355 4.27963257 C-1 2 -1 2 0 0 Z M8 15 C4.17289314 26.25169417 0.59255204 37.51191469 -2.54101562 48.97998047 C-5.36032861 59.29081841 -8.34971122 69.53395092 -11.48364258 79.75390625 C-13.3601607 85.87830462 -15.17589256 92.01438387 -16.9140625 98.1796875 C-18.37387245 103.31527788 -19.87580046 108.43829225 -21.375 113.5625 C-23.5722581 121.07493592 -25.74195081 128.59410604 -27.875 136.125 C-30.51577142 145.43268135 -33.2984535 154.6965435 -36.09069824 163.95959473 C-38.98860357 173.57736771 -41.80451442 183.21460567 -44.54296875 192.87890625 C-47.01184537 201.58512298 -49.56881112 210.2660166 -52.10888672 218.95166016 C-53.57502648 223.96706317 -55.0373383 228.9835818 -56.5 234 C-57.08331458 236.00000547 -57.66664792 238.00000547 -58.25 240 C-58.53875 240.99 -58.8275 241.98 -59.125 243 C-60 246 -60.875 249 -61.75 252 C-62.02243027 252.93407181 -62.29486053 253.86814362 -62.57554626 254.83052063 C-63.15960748 256.83296802 -63.74371762 258.83540115 -64.32789612 260.83781433 C-65.72631224 265.63149305 -67.12411359 270.42534715 -68.51928711 275.2199707 C-71.94261268 286.97922278 -75.38798049 298.73187121 -78.84765625 310.48046875 C-79.05887997 311.19785343 -79.27010368 311.91523811 -79.48772812 312.65436172 C-81.45338042 319.3302637 -83.41948169 326.00603326 -85.38696289 332.68139648 C-91.80394822 354.45120736 -91.80394822 354.45120736 -98.07810974 376.26252747 C-100.03597604 383.15107097 -102.06915373 390.01500977 -104.125 396.875 C-106.52081922 404.91220635 -108.83018991 412.94995232 -110.94140625 421.06640625 C-114.77093813 435.5330947 -119.15392025 449.89034319 -123.68359375 464.15234375 C-124.72873352 467.56166177 -125.07198197 470.44888925 -125 474 C-111.1304919 478.23879011 -97.32337063 481.69766998 -83 484 C-81.94208252 484.17789063 -81.94208252 484.17789063 -80.86279297 484.359375 C-41.81054788 490.69370005 1.8391624 485.62623914 39 473 C40.4540625 472.56107422 40.4540625 472.56107422 41.9375 472.11328125 C85.96547288 458.59913957 128.91568578 428.47565509 157 392 C157.93073414 390.83312954 158.8617404 389.66647609 159.79296875 388.5 C168.05451588 377.98997161 174.68639918 366.76531584 181 355 C181.4026709 354.25121582 181.8053418 353.50243164 182.22021484 352.73095703 C187.0140005 343.72276369 190.82025987 334.71043718 194 325 C194.27328125 324.20335937 194.5465625 323.40671875 194.828125 322.5859375 C195.57608458 320.39775788 196.28795924 318.2001358 197 316 C197.45584473 314.63560791 197.45584473 314.63560791 197.92089844 313.24365234 C200.59500226 304.97480155 202.29998662 296.75796045 203.6875 288.1875 C203.89955078 286.93001953 204.11160156 285.67253906 204.33007812 284.37695312 C204.90700581 280.92084691 205.45932709 277.46193677 206 274 C206.20753906 272.69675781 206.41507813 271.39351562 206.62890625 270.05078125 C212.95499293 215.22712327 194.69075744 154.60870399 160.61962891 111.47314453 C159.4183609 109.9778433 158.20929328 108.48881845 157 107 C156.29617188 106.10410156 155.59234375 105.20820313 154.8671875 104.28515625 C119.29064167 59.58473612 67.78231843 27.57155308 12 15 C10.68 15 9.36 15 8 15 Z " fill="#37BDFA" transform="translate(718,272)"/>
<path d="M0 0 C5.86179079 0.82030891 10.66286447 2.7687554 16.05078125 5.14306641 C17.43646426 5.7522532 18.8247761 6.35547559 20.21484375 6.95458984 C56.57947953 22.63646582 89.5091112 45.50020552 114 77 C114.63808594 77.81549316 114.63808594 77.81549316 115.2890625 78.64746094 C148.9744846 122.01005473 164.99345909 176.06417946 158.875 230.6875 C152.11437308 284.35550476 123.59408114 335.25416596 81.0625 368.8125 C78.7405677 370.58870469 76.38257899 372.30617912 74 374 C73.3292041 374.47743652 72.6584082 374.95487305 71.96728516 375.44677734 C54.40071625 387.80724671 36.12743842 397.52780608 16 405 C15.27989746 405.27392578 14.55979492 405.54785156 13.81787109 405.83007812 C10.28269496 407.17382474 6.75681265 408.44438663 3.125 409.5 C0.63034894 410.22681791 -1.8583673 410.95444978 -4.33203125 411.75 C-11.7692596 414.11807271 -19.32594747 415.64545476 -27 417 C-28.11955078 417.20955322 -28.11955078 417.20955322 -29.26171875 417.42333984 C-57.12522978 422.51821738 -92.96379611 423.59179163 -120 414 C-118.76532156 407.3441605 -117.21972951 400.86833026 -115.3125 394.375 C-115.05339844 393.47966553 -114.79429687 392.58433105 -114.52734375 391.66186523 C-113.11682449 386.79599357 -111.6879411 381.93550601 -110.26171875 377.07421875 C-109.67428245 375.07037016 -109.08704419 373.0664635 -108.5 371.0625 C-108.20520752 370.05687012 -107.91041504 369.05124023 -107.60668945 368.01513672 C-105.4164256 360.51030632 -103.34265351 352.97847583 -101.30702209 345.43048096 C-99.59597065 339.11586794 -97.80788984 332.82801252 -95.96484375 326.55078125 C-95.34479373 324.43183136 -94.72484587 322.31285157 -94.10498047 320.19384766 C-93.76891785 319.04595764 -93.43285522 317.89806763 -93.08660889 316.71539307 C-91.27439741 310.51897957 -89.4697029 304.32037739 -87.66420364 298.12200546 C-86.31876194 293.5036425 -84.9723667 288.88555744 -83.62613869 284.26742363 C-82.48084208 280.33844591 -81.33575829 276.40940644 -80.19116211 272.48022461 C-78.83772543 267.83428346 -77.483653 263.18852805 -76.12890625 258.54296875 C-75.90920795 257.7895904 -75.68950966 257.03621204 -75.46315384 256.26000404 C-72.20449755 245.08939921 -68.91126471 233.929524 -65.59681702 222.77532959 C-63.34170028 215.17784018 -61.14482154 207.56691918 -59 199.9375 C-56.10122926 189.69864312 -53.02613884 179.5257086 -49.859375 169.36694336 C-47.49493114 161.73428122 -45.34684424 154.06322281 -43.29296875 146.34204102 C-41.32741537 139.02633101 -39.12802676 131.79434825 -36.875 124.5625 C-34.43243444 116.72204018 -32.10638157 108.89604855 -30.05078125 100.9453125 C-26.538367 87.54333473 -22.45147136 74.28305023 -18.20410156 61.09838867 C-15.95293506 54.0270509 -14.02999889 46.87712982 -12.11132812 39.7097168 C-10.59307795 34.071861 -8.92717933 28.53178851 -7.0078125 23.015625 C-5.19446536 17.58964052 -3.64468401 12.08349101 -2.05078125 6.58984375 C-1.40451263 4.38195949 -0.72748993 2.1824698 0 0 Z M8 16 C6.0095246 21.16841852 4.22545769 26.33477808 2.69775391 31.66015625 C2.48674419 32.38607027 2.27573448 33.11198429 2.05833054 33.85989571 C1.36146703 36.2599221 0.66902382 38.66120014 -0.0234375 41.0625 C-0.52155398 42.78107873 -1.01996407 44.49957239 -1.51864624 46.21798706 C-2.5838207 49.8905629 -3.64709818 53.56368042 -4.7088623 57.23724365 C-6.39420589 63.06810063 -8.08388147 68.89769643 -9.77441406 74.72705078 C-11.50631693 80.69956118 -13.23809255 86.67210788 -14.96850586 92.64505005 C-19.99644637 109.99915931 -25.0490423 127.34600615 -30.11215973 144.68988037 C-31.1829703 148.35827401 -32.25333352 152.02679816 -33.32373047 155.6953125 C-34.81645101 160.81109957 -36.30930378 165.92684802 -37.80233192 171.04254532 C-41.71143851 184.43676049 -45.6180041 197.83171662 -49.52454662 211.2266798 C-51.05893644 216.4878343 -52.59351288 221.74893435 -54.12817383 227.01000977 C-58.05739519 240.48024227 -61.9860468 253.95063955 -65.91151428 267.42196655 C-67.43506159 272.65041233 -68.95905428 277.87872827 -70.48311901 283.10702324 C-71.56377886 286.81436257 -72.64416917 290.52178005 -73.72396851 294.22937012 C-78.59636544 310.95870001 -83.48973196 327.68156435 -88.42403221 344.39275169 C-89.20442024 347.03651487 -89.98410612 349.68048396 -90.76350403 352.32453918 C-91.01761897 353.1865969 -91.27173391 354.04865461 -91.53354931 354.93683529 C-92.04229295 356.66279038 -92.55100149 358.38875581 -93.05967426 360.11473179 C-94.5452735 365.15379892 -96.03582664 370.19136757 -97.53002548 375.22789097 C-98.45008924 378.333108 -99.36574 381.43961357 -100.28021622 384.54648018 C-100.70643274 385.99097745 -101.13455433 387.43491415 -101.56469345 388.87824821 C-102.1526717 390.85197581 -102.7339877 392.82754854 -103.3137207 394.80371094 C-103.64120804 395.91002869 -103.96869537 397.01634644 -104.30610657 398.15618896 C-105.15803119 401.15979172 -105.15803119 401.15979172 -105 405 C-103.72125 405.309375 -102.4425 405.61875 -101.125 405.9375 C-100.04605469 406.19853516 -100.04605469 406.19853516 -98.9453125 406.46484375 C-44.58580372 416.34183672 16.00527279 399.66012385 61 369 C68.64617662 363.6490957 75.68148156 357.65655913 82.51171875 351.30078125 C84.67179288 349.30347565 86.87547945 347.39456662 89.125 345.5 C113.37682685 324.30429768 130.83707235 292.4740808 140 262 C140.20560547 261.32533691 140.41121094 260.65067383 140.62304688 259.95556641 C155.1725824 211.39587923 148.34776443 159.45061901 124.88305664 114.84814453 C114.98985219 96.71031198 102.13012134 80.99351177 88 66 C87.31035156 65.2678125 86.62070312 64.535625 85.91015625 63.78125 C80.660339 58.37039541 74.94005968 53.63339674 69 49 C68.4548877 48.57315918 67.90977539 48.14631836 67.34814453 47.70654297 C39.97369889 26.25917247 39.97369889 26.25917247 8 16 Z " fill="#3CC0FB" transform="translate(742,315)"/>
<path d="M0 0 C0.66 0 1.32 0 2 0 C4.15492263 2.49342734 5.8787797 5.31188008 7.6875 8.0625 C8.21150391 8.81466797 8.73550781 9.56683594 9.27539062 10.34179688 C11.63608933 13.92472329 13.00207817 16.0835262 12.9921875 20.4453125 C12.66476562 21.61835938 12.33734375 22.79140625 12 24 C11.82283447 24.72147217 11.64566895 25.44294434 11.46313477 26.1862793 C10.83160387 28.74183093 10.14105173 31.27585366 9.4375 33.8125 C9.17791504 34.75738281 8.91833008 35.70226562 8.65087891 36.67578125 C5.90385181 46.55157673 2.86012239 56.33363028 -0.18359375 66.12109375 C-1.89663019 71.6381684 -3.51642151 77.17251873 -5.078125 82.734375 C-6.16999406 86.60218237 -7.3008651 90.45765544 -8.4375 94.3125 C-8.75521362 95.39156616 -8.75521362 95.39156616 -9.0793457 96.49243164 C-10.10980314 99.98972987 -11.14396214 103.4858869 -12.18359375 106.98046875 C-14.36961893 114.34748183 -16.48762099 121.72913338 -18.53955078 129.13476562 C-21.10831797 138.40411804 -23.77430899 147.61371202 -26.73242188 156.76611328 C-29.13559188 164.27205653 -31.22518541 171.85816203 -33.32202148 179.4543457 C-35.55878524 187.52107047 -37.9667323 195.52438203 -40.43847656 203.52172852 C-42.75473447 211.0678461 -44.86800135 218.6587074 -46.87133789 226.29370117 C-48.08980669 230.88455145 -49.43922818 235.39166805 -50.96484375 239.890625 C-52.99831685 245.89112406 -54.71175027 251.95069807 -56.375 258.0625 C-58.46706168 265.65276305 -60.63613572 273.19724441 -63.0625 280.6875 C-65.53750594 288.33446574 -67.67670165 296.04484408 -69.75024414 303.80932617 C-71.56255342 310.53983329 -73.5973641 317.17130212 -75.74560547 323.80102539 C-78.00188066 330.83620653 -79.94700888 337.94392712 -81.8203125 345.08984375 C-83.33490759 350.80399795 -85.11147093 356.38188038 -87.00927734 361.97973633 C-88.59520554 366.81451153 -89.91588746 371.71596072 -91.25 376.625 C-93.70283255 385.52968812 -96.30914722 394.37124201 -99.0625 403.1875 C-102.15888018 413.11169998 -105.00378882 423.07881797 -107.67578125 433.125 C-110.28467851 442.87083546 -113.0936597 452.68488082 -117 462 C-120.7471887 458.44438537 -123.45198882 454.27585101 -126.3125 450 C-126.88806641 449.19949219 -127.46363281 448.39898438 -128.05664062 447.57421875 C-131.1278561 442.92849594 -132.46009708 439.91772151 -131.50390625 434.328125 C-131.04642629 432.54029395 -130.54806291 430.76217332 -130 429 C-129.62101563 427.73671875 -129.24203125 426.4734375 -128.8515625 425.171875 C-128.44679687 424.04265625 -128.04203125 422.9134375 -127.625 421.75 C-125.91562505 416.85099881 -124.41209259 411.96936629 -123.125 406.9375 C-121.51118619 400.6904788 -119.61766524 394.57349022 -117.625 388.4375 C-115.16734404 380.86082267 -112.92340628 373.25986518 -110.875 365.5625 C-109.27024154 359.53326056 -107.59723378 353.58623963 -105.5625 347.6875 C-103.31621669 341.17112541 -101.45189164 334.58288738 -99.625 327.9375 C-97.41361602 319.89921841 -95.07872577 311.92813301 -92.5 304 C-89.865412 295.88042083 -87.43288593 287.71855861 -85.125 279.5 C-84.82658203 278.44296875 -84.52816406 277.3859375 -84.22070312 276.296875 C-83.45400433 273.53747421 -82.72274329 270.77115718 -82 268 C-81.68546875 266.89140625 -81.3709375 265.7828125 -81.046875 264.640625 C-80.97752738 260.73404259 -82.63495394 259.2005875 -85.125 256.25 C-86.05898995 255.10922075 -86.9898133 253.96584382 -87.91796875 252.8203125 C-88.4186084 252.20833008 -88.91924805 251.59634766 -89.43505859 250.96582031 C-92.82104653 246.7124701 -95.92613801 242.24706552 -99.07910156 237.82006836 C-101.75438787 234.07538285 -104.4606165 230.37740424 -107.30859375 226.76171875 C-107.82558838 226.09446777 -108.34258301 225.4272168 -108.87524414 224.73974609 C-109.84651701 223.49162172 -110.83318972 222.2552691 -111.83764648 221.03369141 C-114.05412615 218.15627229 -115.00206988 216.42898312 -114.984375 212.76171875 C-113.68994411 207.81514355 -112.3412929 202.89860717 -110.875 198 C-110.5665918 196.95706787 -110.25818359 195.91413574 -109.94042969 194.83959961 C-108.96702244 191.55767868 -107.98504121 188.27844663 -107 185 C-106.6812793 183.93797363 -106.36255859 182.87594727 -106.03417969 181.78173828 C-103.13691457 172.14855556 -100.23243389 162.52694368 -97 153 C-92.9181214 154.82721301 -91.01833237 157.36861031 -88.5625 161 C-87.68180051 162.26749093 -86.80024629 163.53438826 -85.91796875 164.80078125 C-85.4492334 165.47834473 -84.98049805 166.1559082 -84.49755859 166.85400391 C-81.83746243 170.66591217 -79.10266956 174.42380634 -76.375 178.1875 C-75.274711 179.70961475 -74.17444995 181.23174971 -73.07421875 182.75390625 C-69.39176062 187.8424559 -65.70042279 192.92449563 -62 198 C-59.34829506 192.43141963 -57.74436985 186.73255749 -56.09765625 180.796875 C-55.02090232 177.0723027 -53.8179015 173.4178188 -52.5625 169.75 C-50.42619982 163.45216094 -48.61276206 157.1101317 -46.87524414 150.69238281 C-45.22378318 144.654007 -43.27537217 138.76796359 -41.25 132.84375 C-39.83757336 128.60647008 -38.66697092 124.31018271 -37.5 120 C-36.00982955 114.49930464 -34.40812945 109.08287043 -32.5625 103.6875 C-30.50655064 97.67433151 -28.71626375 91.61835464 -27 85.5 C-24.9342825 78.14112795 -22.68408074 70.90212313 -20.21484375 63.66796875 C-18.64941356 58.94147695 -17.25739053 54.17328008 -15.87036133 49.39208984 C-14.32126915 44.06147883 -12.69535627 38.76121013 -11.0222168 33.46801758 C-9.7175291 29.32864085 -8.4475542 25.18019163 -7.19921875 21.0234375 C-6.88710449 19.98654785 -6.57499023 18.9496582 -6.25341797 17.88134766 C-5.63618831 15.82722528 -5.02183078 13.77223723 -4.41064453 11.71630859 C-3.98501221 10.30212646 -3.98501221 10.30212646 -3.55078125 8.859375 C-3.29981689 8.01858398 -3.04885254 7.17779297 -2.7902832 6.31152344 C-2.02890434 4.08454318 -1.10470575 2.07501907 0 0 Z " fill="#3E5873" transform="translate(266,208)"/>
<path d="M0 0 C0.66 0 1.32 0 2 0 C0.03221396 7.30319721 -2.01615284 14.57801854 -4.14453125 21.8359375 C-4.43680099 22.83597809 -4.72907074 23.83601868 -5.03019714 24.86636353 C-5.95669959 28.03618243 -6.88448166 31.2056246 -7.8125 34.375 C-13.8114836 54.87139436 -19.75100439 75.3807765 -25.43334961 95.9675293 C-26.74454291 100.67668314 -28.08580683 105.3597853 -29.625 110 C-29.86919678 110.73887451 -30.11339355 111.47774902 -30.36499023 112.23901367 C-31.01133146 114.16039134 -31.67861137 116.07469088 -32.34765625 117.98828125 C-33.26033541 120.90459222 -33.26033541 120.90459222 -32.18359375 123.23046875 C-31.79300781 123.81441406 -31.40242188 124.39835937 -31 125 C-30.67 125.99 -30.34 126.98 -30 128 C-30.96678562 129.40017228 -31.93835396 130.79745041 -32.94140625 132.171875 C-34.86748316 135.498089 -35.36617682 139.24709962 -36 143 C-36.99 143 -37.98 143 -39 143 C-39.16109253 143.87072144 -39.16109253 143.87072144 -39.32543945 144.7590332 C-40.64789163 151.65656883 -42.34627392 158.41178803 -44.1875 165.1875 C-44.49429688 166.32316406 -44.80109375 167.45882812 -45.1171875 168.62890625 C-47.37631046 176.90928345 -49.82812575 185.11720956 -52.3737793 193.31323242 C-54.88288209 201.45435864 -57.11679474 209.65759423 -59.25195312 217.90429688 C-60.99664153 224.55510155 -62.94269469 231.12643592 -64.96875 237.6953125 C-70.31295725 255.07170785 -75.21797303 272.57799422 -80.19812012 290.0612793 C-81.26439249 293.80272826 -82.33262944 297.54361498 -83.40091801 301.28448868 C-88.16856518 317.98047733 -92.92824693 334.67828816 -97.59373474 351.40316772 C-100.86380564 363.11716534 -104.21563574 374.80776135 -107.5625 386.5 C-108.25332594 388.91534435 -108.94407985 391.33070931 -109.63476562 393.74609375 C-111.04935148 398.69279147 -112.46425728 403.6393975 -113.87939453 408.5859375 C-116.94446986 419.30075161 -120.00547176 430.01672942 -123.06661987 440.73266602 C-124.54424702 445.90515817 -126.0221292 451.07757746 -127.5 456.25 C-127.98958461 457.9635413 -128.47916809 459.67708293 -128.96875 461.390625 C-129.47921875 463.17726563 -129.47921875 463.17726563 -130 465 C-130.66 465 -131.32 465 -132 465 C-131.67 462.36 -131.34 459.72 -131 457 C-131.75925781 457.83144531 -132.51851562 458.66289063 -133.30078125 459.51953125 C-134.30465114 460.61722075 -135.3085594 461.71487516 -136.3125 462.8125 C-136.81201172 463.35970703 -137.31152344 463.90691406 -137.82617188 464.47070312 C-140.17028669 467.03215309 -142.532328 469.55766995 -145 472 C-143.79837445 465.46845954 -142.27963258 459.15350966 -140.3125 452.8125 C-140.05412354 451.96518311 -139.79574707 451.11786621 -139.52954102 450.24487305 C-138.9771333 448.43476163 -138.42264067 446.62528535 -137.86621094 444.81640625 C-136.38019367 439.98475596 -134.90978647 435.14834845 -133.4375 430.3125 C-133.14157959 429.34135254 -132.84565918 428.37020508 -132.54077148 427.36962891 C-129.07732438 415.99124017 -125.70178586 404.59723405 -122.5625 393.125 C-120.60776822 385.98375459 -118.42213921 378.93478836 -116.15820312 371.88623047 C-114.66425518 367.20180115 -113.2963637 362.51144838 -112.0625 357.75 C-109.87423711 349.30695234 -107.28965774 340.99299161 -104.73046875 332.65625 C-102.62518743 325.79595658 -100.60299603 318.91253383 -98.59277344 312.02392578 C-97.98559062 309.9508016 -97.37251535 307.87949985 -96.7578125 305.80859375 C-94.6206665 298.59894459 -92.54490045 291.37880141 -90.5625 284.125 C-88.60883148 276.98662562 -86.42506345 269.94016362 -84.16040039 262.89501953 C-82.63763439 258.12319563 -81.25526165 253.34916431 -80 248.5 C-78.5473473 242.89348089 -76.89573006 237.38657381 -75.125 231.875 C-72.10499778 222.46987754 -69.39297485 212.99028833 -66.70703125 203.48535156 C-65.63972359 199.73355875 -64.54175442 195.99105903 -63.4375 192.25 C-63.23503662 191.56333252 -63.03257324 190.87666504 -62.82397461 190.16918945 C-62.01107554 187.41510695 -61.19632699 184.66158024 -60.37939453 181.90869141 C-59.75178456 179.79363109 -59.12541687 177.67820983 -58.5 175.5625 C-58.29294434 174.86205566 -58.08588867 174.16161133 -57.87255859 173.43994141 C-56.37663716 168.35054386 -54.96090758 163.24191313 -53.5625 158.125 C-51.60802782 150.98368917 -49.42213531 143.93477622 -47.15820312 136.88623047 C-45.66425518 132.20180115 -44.2963637 127.51144838 -43.0625 122.75 C-40.87423711 114.30695234 -38.28965774 105.99299161 -35.73046875 97.65625 C-33.62561004 90.7973337 -31.60304445 83.91542183 -29.59277344 77.02832031 C-28.77515984 74.230654 -27.95239345 71.43451381 -27.12939453 68.63842773 C-26.71078368 67.21615759 -26.2924879 65.79379468 -25.87451172 64.37133789 C-24.83721075 60.8413516 -23.79678816 57.31234165 -22.75 53.78515625 C-18.63862273 39.91046153 -14.78408033 25.96725587 -11 12 C-10.39414062 11.88011719 -9.78828125 11.76023438 -9.1640625 11.63671875 C-5.79545144 10.64559311 -4.23447282 8.64608624 -2 6 C-0.66436389 2.83298577 -0.66436389 2.83298577 0 0 Z " fill="#324A63" transform="translate(302,230)"/>
<path d="M0 0 C8.73272965 0.46626365 16.60411471 3.21032074 24.8125 6 C25.54410339 6.24610016 26.27570679 6.49220032 27.02947998 6.74575806 C39.03222417 10.7947205 50.66922252 15.30522923 62 21 C62.66547852 21.33064453 63.33095703 21.66128906 64.01660156 22.00195312 C83.95520535 31.99609135 102.39849197 44.54965114 118.671875 59.82421875 C120.66897354 61.69063466 122.71022326 63.44296363 124.8125 65.1875 C136.77909065 75.66437223 146.70311918 88.16751075 156 101 C156.648479 101.87930176 156.648479 101.87930176 157.31005859 102.77636719 C174.74359497 126.59644659 186.25701565 154.4136307 193 183 C193.37356144 184.51826275 193.74725855 186.03649213 194.12109375 187.5546875 C202.98454631 224.37547806 200.05103613 261.77032843 190 298 C189.51691993 299.89483993 189.03693543 301.79047714 188.5625 303.6875 C186.90935643 309.69893116 184.48663729 315.29374969 182 321 C181.54238281 322.14597656 181.08476563 323.29195312 180.61328125 324.47265625 C172.72252567 343.95536873 161.36198359 361.83908099 148 378 C147.50290527 378.6098877 147.00581055 379.21977539 146.49365234 379.84814453 C135.88102115 392.8245776 124.25984963 404.71608253 111 415 C109.5459375 416.17949219 109.5459375 416.17949219 108.0625 417.3828125 C72.62152784 445.6469878 27.85664245 463.58392888 -17 469 C-18.24740967 469.1544458 -18.24740967 469.1544458 -19.52001953 469.31201172 C-57.51614234 473.81351757 -96.64713277 471.48975669 -133 459 C-131.72434185 447.77420824 -128.14331615 437.07839827 -124.82958984 426.32592773 C-122.61242442 419.09967485 -120.51990073 411.84621194 -118.5 404.5625 C-115.69175669 394.43870442 -112.79291545 384.34519451 -109.8359375 374.26391602 C-108.17674296 368.60594013 -106.52463216 362.94592618 -104.875 357.28515625 C-102.05599526 347.61604304 -99.23238234 337.94828174 -96.40625 328.28125 C-96.20725601 327.60056017 -96.00826202 326.91987034 -95.80323792 326.21855354 C-94.1623879 320.60585027 -92.52135267 314.99320116 -90.88031006 309.3805542 C-85.84328194 292.15295463 -80.80840333 274.92473968 -75.78515625 257.69311523 C-74.35723036 252.79527614 -72.92856145 247.89765375 -71.5 243 C-70.91666371 241.00000086 -70.33333002 239.00000097 -69.75 237 C-68.58333333 233 -67.41666667 229 -66.25 225 C-65.9614917 224.01080566 -65.6729834 223.02161133 -65.37573242 222.00244141 C-64.79000764 219.99428881 -64.20423258 217.98615089 -63.6184082 215.97802734 C-62.19625969 211.10287857 -60.77486687 206.22751281 -59.35546875 201.3515625 C-56.78803159 192.53550874 -54.21500094 183.7212168 -51.6171875 174.9140625 C-50.98083065 172.7560324 -50.34450712 170.59799249 -49.70822144 168.43994141 C-49.27840418 166.98223138 -48.84849317 165.524549 -48.41848755 164.06689453 C-46.15612672 156.39430695 -43.90804521 148.71834811 -41.72265625 141.0234375 C-41.36743896 139.77272461 -41.01222168 138.52201172 -40.64624023 137.23339844 C-39.99068954 134.91710885 -39.33763844 132.60010955 -38.68774414 130.28222656 C-37.22226389 125.09551734 -35.67846461 119.96084186 -33.94921875 114.85546875 C-32.14105303 109.51474762 -30.61802258 104.1396418 -29.1875 98.6875 C-26.54160512 88.78982973 -23.60460113 78.99879899 -20.59375 69.20703125 C-18.20999938 61.45009509 -15.99305758 53.6497225 -13.859375 45.8203125 C-11.04592432 35.52725525 -7.95571967 25.35108751 -4.69775391 15.19042969 C-3.08904605 10.14028031 -1.54717534 5.0692745 0 0 Z M2 4 C-2.49458415 18.63372184 -6.86834823 33.29812213 -11.12939453 48.00146484 C-11.98738085 50.95653719 -12.85016678 53.91016029 -13.71484375 56.86328125 C-16.8289139 67.50191478 -19.90368732 78.15068914 -22.9375 88.8125 C-26.23368538 100.38981295 -29.63005294 111.9351182 -33.0625 123.47265625 C-35.47424687 131.58347626 -37.84084182 139.70726389 -40.20507812 147.83203125 C-44.75276508 163.46020446 -49.31551345 179.08391391 -53.89245415 194.70354271 C-54.65862477 197.31831072 -55.42467572 199.93311377 -56.19068909 202.54792786 C-56.44794549 203.42607053 -56.70520189 204.3042132 -56.97025394 205.20896626 C-57.49594933 207.00342384 -58.02164193 208.79788223 -58.54733181 210.59234142 C-59.87348348 215.11898101 -61.1999669 219.64552293 -62.52709961 224.171875 C-70.55009028 251.53084102 -70.55009028 251.53084102 -78.41270447 278.93621826 C-81.2141804 288.80607529 -84.13626279 298.63920554 -87.0625 308.47265625 C-89.78944412 317.6434997 -92.46017985 326.83065116 -95.13232422 336.01757812 C-96.62786739 341.15813958 -98.1262938 346.29785996 -99.625 351.4375 C-100.06598022 352.94993286 -100.06598022 352.94993286 -100.51586914 354.49291992 C-102.36534887 360.83302602 -104.22437169 367.17024342 -106.09082031 373.50537109 C-108.77642055 382.62730083 -111.43237193 391.7579041 -114.09277344 400.88720703 C-115.27155975 404.93175101 -116.45106985 408.97608345 -117.63110352 413.02026367 C-118.2078382 414.99807958 -118.78385379 416.97610533 -119.35913086 418.9543457 C-120.88819063 424.20900262 -122.43202829 429.45877187 -123.99609375 434.703125 C-124.3209375 435.79882812 -124.64578125 436.89453125 -124.98046875 438.0234375 C-125.6049746 440.12891438 -126.23368914 442.23314881 -126.8671875 444.3359375 C-127.14691406 445.28210938 -127.42664063 446.22828125 -127.71484375 447.203125 C-127.96355225 448.03489258 -128.21226074 448.86666016 -128.46850586 449.72363281 C-129.15157885 452.25960733 -129.15157885 452.25960733 -129 456 C-92.67307071 470.95027188 -44.24551187 470.88227849 -6 464 C-5.09830078 463.83902832 -4.19660156 463.67805664 -3.26757812 463.51220703 C19.72194708 459.21714319 42.04943445 451.32036816 63 441 C63.78777832 440.61763184 64.57555664 440.23526367 65.38720703 439.84130859 C81.79575034 431.81244898 97.07254521 421.83944721 111 410 C112.11837096 409.06626415 113.23687065 408.13268248 114.35546875 407.19921875 C124.37732175 398.78086223 133.61777563 390.02724145 141.79296875 379.76171875 C143.22489254 377.96991323 144.68461728 376.19984587 146.17578125 374.45703125 C163.39818031 354.23677232 175.35679252 329.96170876 184 305 C184.36448242 303.99573975 184.36448242 303.99573975 184.73632812 302.97119141 C192.61771094 281.2524805 195.22017702 257.9610505 195.1875 235 C195.18689575 234.21898926 195.1862915 233.43797852 195.18566895 232.63330078 C195.1618666 221.31731887 194.98817354 210.16996956 193 199 C192.87109375 198.25508301 192.7421875 197.51016602 192.609375 196.74267578 C190.42482016 184.50259481 187.03229981 172.74952696 183 161 C182.64550781 159.94296875 182.29101562 158.8859375 181.92578125 157.796875 C173.03512525 133.07490217 159.81315341 110.12776325 143 90 C142.52062988 89.41911621 142.04125977 88.83823242 141.54736328 88.23974609 C131.35192332 75.91311295 120.54696027 64.95041133 108 55 C107.14019531 54.27296875 106.28039062 53.5459375 105.39453125 52.796875 C93.29164155 42.57109522 79.94146527 34.45206138 66 27 C65.04770508 26.48590576 65.04770508 26.48590576 64.07617188 25.96142578 C47.82826662 17.25838114 30.36670409 10.94517215 12.6875 5.8125 C11.51574219 5.46832031 10.34398437 5.12414062 9.13671875 4.76953125 C5.89082217 3.84115695 5.89082217 3.84115695 2 4 Z " fill="#82DAFE" transform="translate(726,287)"/>
<path d="M0 0 C-1.31156343 8.95349395 -3.83596986 17.40083351 -6.61328125 25.984375 C-7.06984177 27.41227249 -7.52581844 28.84035677 -7.98124695 30.26861572 C-9.17495007 34.00641573 -10.37696197 37.74149217 -11.58068848 41.47607422 C-12.55068696 44.49010789 -13.51491388 47.50597185 -14.47878742 50.52196884 C-18.90620857 64.37504753 -23.37539609 78.2113235 -28 92 C-28.66 92 -29.32 92 -30 92 C-31.33984375 90.48828125 -31.33984375 90.48828125 -32.9375 88.3125 C-35.98187528 84.27870276 -39.15520696 80.40180189 -42.4375 76.5625 C-46.37463763 71.94493533 -50.21565235 67.2685821 -53.984375 62.51171875 C-56.22155477 59.72391528 -58.51318947 56.98675797 -60.8125 54.25 C-64.92037485 49.34441856 -68.88355113 44.34472336 -72.8125 39.29541016 C-76.49051385 34.59269542 -80.32042453 30.03650771 -84.20214844 25.50146484 C-87.65277493 21.4547294 -90.87784664 17.30350869 -94 13 C-90.71224918 11.11366655 -87.74330789 10.48391697 -84.0078125 9.921875 C-82.76725098 9.73326904 -81.52668945 9.54466309 -80.24853516 9.3503418 C-78.87410717 9.14965355 -77.4995925 8.94955828 -76.125 8.75 C-74.68928783 8.53753341 -73.25357826 8.32504922 -71.81787109 8.11254883 C-59.78678975 6.34779867 -47.73828399 4.70084352 -35.68499756 3.09558105 C-33.65952916 2.82546473 -31.63433569 2.55327799 -29.60943604 2.27893066 C-9.55952921 -0.42717142 -9.55952921 -0.42717142 0 0 Z " fill="#FAFBFB" transform="translate(697,267)"/>
<path d="M0 0 C43.57233399 5.09650693 91.00463631 42.50283759 117.58984375 75.83984375 C153.01311845 122.28624445 172.47595743 177.11596221 164.91210938 236.08447266 C164.62936354 238.0594804 164.31536954 240.02993836 164 242 C163.81695313 243.17949219 163.63390625 244.35898437 163.4453125 245.57421875 C155.64550355 289.33981344 134.49646974 327.1610591 104 359 C102.93652344 360.12535156 102.93652344 360.12535156 101.8515625 361.2734375 C73.20846135 390.85182358 34.20174514 409.43854824 -5 420 C-5.77875488 420.21285645 -6.55750977 420.42571289 -7.35986328 420.64501953 C-12.20725028 421.9509769 -17.07059967 423.05081304 -22 424 C-23.13671143 424.22429687 -23.13671143 424.22429687 -24.29638672 424.453125 C-55.58348176 430.31511252 -91.2769282 429.3146893 -122 421 C-121.23503826 415.57410856 -119.83339494 410.39546035 -118.375 405.125 C-118.11066162 404.16319824 -117.84632324 403.20139648 -117.57397461 402.21044922 C-114.78459408 392.12043761 -111.84638201 382.07465256 -108.89111328 372.03222656 C-107.41925128 367.02386327 -105.96028007 362.01174979 -104.5 357 C-103.91540834 354.99608098 -103.33077293 352.99217473 -102.74609375 350.98828125 C-101.590873 347.02780053 -100.43734946 343.06683125 -99.28515625 339.10546875 C-95.91047687 327.50938377 -92.49527623 315.92619507 -89.05102539 304.35058594 C-86.64202568 296.22911323 -84.30861297 288.08800583 -82 279.9375 C-79.40957806 270.79446059 -76.70274032 261.69738978 -73.875 252.625 C-71.11266568 243.76112134 -68.54612155 234.8686279 -66.14575195 225.90039062 C-64.32467319 219.11750518 -62.35618491 212.3897928 -60.31762695 205.66943359 C-58.35792673 199.20806182 -56.44868572 192.73320782 -54.5625 186.25 C-54.26996338 185.24469238 -53.97742676 184.23938477 -53.67602539 183.20361328 C-53.08085165 181.1572856 -52.4858818 179.11089862 -51.89111328 177.06445312 C-50.43064018 172.04202619 -48.96509634 167.02107982 -47.5 162 C-46.91664166 160.00000729 -46.33330834 158.00000729 -45.75 156 C-30 102 -30 102 -14.25 48 C-13.96084717 47.0085498 -13.67169434 46.01709961 -13.3737793 44.99560547 C-12.79466519 43.01021008 -12.21540264 41.02485799 -11.63598633 39.03955078 C-10.11183295 33.81645882 -8.59081994 28.59247777 -7.07421875 23.3671875 C-6.75839844 22.28050781 -6.44257812 21.19382812 -6.1171875 20.07421875 C-5.51336846 17.99637088 -4.91045187 15.91826046 -4.30859375 13.83984375 C-2.95765941 9.19441389 -1.57877642 4.57460094 0 0 Z M3 4 C0.45197362 11.36212542 -1.98680453 18.70237239 -3.9375 26.25 C-5.41028939 31.94005378 -7.07630014 37.52993938 -8.875 43.125 C-12.83638852 55.48064063 -16.32854241 67.96213875 -19.79296875 80.46484375 C-20.0979126 81.56231934 -20.40285645 82.65979492 -20.71704102 83.79052734 C-21.30260202 85.90068831 -21.88533516 88.01163703 -22.46459961 90.12353516 C-24.1500561 96.20355619 -26.0344267 102.18194584 -28.05810547 108.1574707 C-29.41692961 112.25824557 -30.59190403 116.40143423 -31.75 120.5625 C-34.09941054 128.89556549 -36.52866845 137.20229936 -39 145.5 C-41.37701295 153.48803811 -43.72691403 161.48175169 -46 169.5 C-48.27308723 177.51825277 -50.62332174 185.51185986 -53 193.5 C-55.35137973 201.40592856 -57.68272434 209.31594936 -59.9375 217.25 C-65.31034598 236.13767542 -70.81007012 254.98727874 -76.37109375 273.8203125 C-76.56661709 274.48253563 -76.76214043 275.14475876 -76.96358871 275.82704926 C-78.95736354 282.57937342 -80.95235901 289.33133421 -82.95044136 296.08238506 C-86.94512107 309.58122494 -90.90808292 323.08718557 -94.75512695 336.62890625 C-96.30272811 342.07515546 -97.89963693 347.50656492 -99.5 352.9375 C-102.00898163 361.49135109 -104.40639401 370.06899543 -106.71948242 378.67773438 C-108.91812786 386.81617972 -111.29137756 394.90060629 -113.72851562 402.97070312 C-115.2210797 407.98804095 -116.44221632 412.79160432 -117 418 C-89.18751034 427.86719906 -52.57452003 426.44331372 -24 421 C-23.17661133 420.85014648 -22.35322266 420.70029297 -21.50488281 420.54589844 C-10.38954259 418.49845016 0.30093242 415.62225485 11 412 C12.09957031 411.64421875 13.19914063 411.2884375 14.33203125 410.921875 C56.88780703 396.58517237 96.79907115 368.72272479 123 332 C123.41797852 331.41573242 123.83595703 330.83146484 124.26660156 330.22949219 C142.93004568 303.83138972 156.28053949 273.15832414 160.72363281 240.98876953 C160.99736545 239.0189585 161.30711934 237.05426294 161.6171875 235.08984375 C169.33819115 182.97785882 152.57363194 129.19855928 121.68847656 87.21728516 C115.02372251 78.28632 107.70909019 70.03678797 100 62 C99.21753906 61.17628906 98.43507813 60.35257812 97.62890625 59.50390625 C92.12857843 53.84670633 86.22684724 48.83955989 80 44 C79.46165527 43.57992676 78.92331055 43.15985352 78.36865234 42.72705078 C58.64608597 27.45522721 36.45625504 14.76497136 12.71484375 6.9375 C10 6 10 6 7.81640625 4.875 C5.88557021 3.78300481 5.88557021 3.78300481 3 4 Z " fill="#85DBFE" transform="translate(739,311)"/>
<path d="M0 0 C2.42435626 4.49353987 3.30888683 9.1019038 4.375 14.0625 C4.59124023 15.06385986 4.80748047 16.06521973 5.03027344 17.09692383 C6.70347181 25.0888416 8.0506444 33.11180151 9.25 41.1875 C9.41290527 42.28392822 9.57581055 43.38035645 9.74365234 44.51000977 C14.12575107 75.2242841 14.11307965 108.38583759 9 139 C8.80132324 140.21042969 8.60264648 141.42085937 8.39794922 142.66796875 C4.15325317 167.82454939 -2.03934359 192.46794924 -12 216 C-13.21668839 212.4803127 -12.76525805 210.23079759 -11.77734375 206.6796875 C-11.48891602 205.60444824 -11.20048828 204.52920898 -10.90332031 203.42138672 C-10.58459961 202.2510791 -10.26587891 201.08077148 -9.9375 199.875 C-1.11721701 166.01950292 4.07823678 130.75583245 4.203125 95.7578125 C4.20995804 94.44230408 4.21679108 93.12679565 4.22383118 91.77142334 C4.24271063 87.55594658 4.24722847 83.34051321 4.25 79.125 C4.251031 78.40964333 4.252062 77.69428665 4.25312424 76.9572525 C4.28032444 56.88575735 3.96237714 37.06077515 1.36376953 17.12402344 C0.70112221 11.43326162 0.35883443 5.71675125 0 0 Z " fill="#005CFF" transform="translate(1008,433)"/>
<path d="M0 0 C1.53052914 3.06105827 0.22585073 4.95074689 -0.8359375 8.14453125 C-1.24070313 9.37880859 -1.64546875 10.61308594 -2.0625 11.88476562 C-2.49956331 13.19415626 -2.93706767 14.50339976 -3.375 15.8125 C-4.22005406 18.35941668 -5.05981167 20.90798028 -5.8984375 23.45703125 C-6.27661621 24.59116455 -6.65479492 25.72529785 -7.04443359 26.89379883 C-7.87494029 29.59347606 -8.51013767 32.22141001 -9 35 C-10.2684375 35.2475 -10.2684375 35.2475 -11.5625 35.5 C-15.78511526 37.34259575 -17.67136705 39.75970334 -20.484375 43.3203125 C-21.23460937 44.15175781 -21.23460937 44.15175781 -22 45 C-22.66 45 -23.32 45 -24 45 C-23.73781251 40.5428126 -23.42288711 38.48477302 -20.4375 35.0625 C-19.2309375 34.0415625 -19.2309375 34.0415625 -18 33 C-18.33 32.67 -18.66 32.34 -19 32 C-19.99 32.495 -19.99 32.495 -21 33 C-20.25 28.25 -20.25 28.25 -18 26 C-18.185625 25.37351563 -18.37125 24.74703125 -18.5625 24.1015625 C-18.706875 23.40804687 -18.85125 22.71453125 -19 22 C-17.8125 20.2109375 -17.8125 20.2109375 -16 18.375 C-13.12935788 15.32136874 -10.70750579 12.23334565 -8.375 8.75 C-5.93679826 5.17250309 -3.65067719 2.4337848 0 0 Z M-12 24 C-13.485 25.98 -13.485 25.98 -15 28 C-13.68 27.34 -12.36 26.68 -11 26 C-11.33 25.34 -11.66 24.68 -12 24 Z " fill="#3E5974" transform="translate(257,177)"/>
<path d="M0 0 C0.66 0.33 1.32 0.66 2 1 C1.06364881 4.29199453 0.12570137 7.58353233 -0.8125 10.875 C-1.07353516 11.7928125 -1.33457031 12.710625 -1.60351562 13.65625 C-3.35191527 19.78644134 -5.15183485 25.89914798 -7 32 C-7.99 32 -8.98 32 -10 32 C-10.66 31.01 -11.32 30.02 -12 29 C-14.31 31.31 -16.62 33.62 -19 36 C-20.11572595 31.53709621 -19.4567924 30.18827816 -18 26 C-18.33 25.34 -18.66 24.68 -19 24 C-18.34 24 -17.68 24 -17 24 C-16.95875 23.319375 -16.9175 22.63875 -16.875 21.9375 C-15.82326797 18.40668534 -14.19997964 16.65648366 -11.75390625 13.96875 C-9.20778586 11.11074404 -6.92920802 8.06093561 -4.61328125 5.015625 C-3.16805386 3.2099656 -1.67097193 1.59524813 0 0 Z M-15 32 C-14.01 32.495 -14.01 32.495 -13 33 C-13.99 33.495 -13.99 33.495 -15 34 C-15 33.34 -15 32.68 -15 32 Z M-15 35 C-14.34 35.33 -13.68 35.66 -13 36 C-13.99 36.66 -14.98 37.32 -16 38 C-15.67 37.01 -15.34 36.02 -15 35 Z " fill="#2D4258" transform="translate(158,333)"/>
<path d="M0 0 C1.29634102 3.88902307 0.24641472 6.50676505 -0.87109375 10.29296875 C-1.0722731 10.99899734 -1.27345245 11.70502594 -1.48072815 12.43244934 C-2.12500268 14.6865138 -2.78107852 16.93694637 -3.4375 19.1875 C-3.87643267 20.71527044 -4.31459328 22.24326293 -4.75195312 23.77148438 C-5.82569416 27.51695812 -6.91003148 31.25921792 -8 35 C-8.66 35 -9.32 35 -10 35 C-9.67 32.36 -9.34 29.72 -9 27 C-9.75925781 27.83144531 -10.51851562 28.66289063 -11.30078125 29.51953125 C-12.30465114 30.61722075 -13.3085594 31.71487516 -14.3125 32.8125 C-14.81201172 33.35970703 -15.31152344 33.90691406 -15.82617188 34.47070312 C-18.16943128 37.03121837 -20.51144854 39.57939534 -23 42 C-22.54261927 37.31808451 -20.80889606 35.36895826 -17.4375 32.1875 C-16.61121094 31.39730469 -15.78492188 30.60710938 -14.93359375 29.79296875 C-14.29550781 29.20128906 -13.65742188 28.60960937 -13 28 C-13.66 25.69 -14.32 23.38 -15 21 C-14.25943359 20.36384766 -14.25943359 20.36384766 -13.50390625 19.71484375 C-8.99537103 15.58731151 -7.46430259 13.26808497 -7 7 C-5.26672267 3.2858343 -3.86004124 1.46415357 0 0 Z " fill="#30465D" transform="translate(180,660)"/>
<path d="M0 0 C1.49545905 2.9909181 0.34011578 4.73747923 -0.65234375 7.8828125 C-1.01650391 9.04941406 -1.38066406 10.21601563 -1.75585938 11.41796875 C-2.14580078 12.64128906 -2.53574219 13.86460937 -2.9375 15.125 C-3.51661133 16.97158203 -3.51661133 16.97158203 -4.10742188 18.85546875 C-5.06507517 21.90577185 -6.02953405 24.95375381 -7 28 C-10 28 -10 28 -11.75 26.8125 C-13 25 -13 25 -12.9375 22.8125 C-11.8905312 19.67159361 -10.50512124 16.87531701 -8.9375 13.96484375 C-7.92719241 12.05158659 -7.92719241 12.05158659 -7.59765625 10.01953125 C-6.79599837 7.31066115 -5.33630463 5.82142324 -3.4375 3.75 C-2.47650391 2.69039063 -2.47650391 2.69039063 -1.49609375 1.609375 C-1.00238281 1.07828125 -0.50867188 0.5471875 0 0 Z M-15 28 C-14.01 28.495 -14.01 28.495 -13 29 C-13.99 29.495 -13.99 29.495 -15 30 C-15 29.34 -15 28.68 -15 28 Z M-15 31 C-14.34 31.33 -13.68 31.66 -13 32 C-13.99 32.66 -14.98 33.32 -16 34 C-15.67 33.01 -15.34 32.02 -15 31 Z " fill="#405B76" transform="translate(158,337)"/>
<path d="M0 0 C0 4.73862262 -0.74433823 7.04089469 -4.0625 10.4375 C-6.55296777 13.17387103 -6.55296777 13.17387103 -7.375 16.75 C-7.25125 17.4925 -7.1275 18.235 -7 19 C-7 22 -7 22 -8.53125 23.82421875 C-9.1809375 24.43910156 -9.830625 25.05398438 -10.5 25.6875 C-11.1496875 26.31011719 -11.799375 26.93273437 -12.46875 27.57421875 C-13.22671875 28.27998047 -13.22671875 28.27998047 -14 29 C-16.00511137 24.98977726 -13.05280348 19.5981797 -11.8125 15.5 C-11.50763672 14.42878906 -11.20277344 13.35757813 -10.88867188 12.25390625 C-10.58123047 11.23167969 -10.27378906 10.20945312 -9.95703125 9.15625 C-9.53901245 7.74569336 -9.53901245 7.74569336 -9.11254883 6.30664062 C-7.78237094 3.548791 -6.81799943 3.04443574 -4 2 C-3.2575 1.62875 -2.515 1.2575 -1.75 0.875 C-0.88375 0.441875 -0.88375 0.441875 0 0 Z " fill="#435F7A" transform="translate(173,668)"/>
<path d="M0 0 C0.33 0.66 0.66 1.32 1 2 C-1.22356445 8.07774283 -5.68433025 12.30493072 -10 17 C-11.85984973 19.1493205 -13.70990575 21.30649418 -15.5546875 23.46875 C-17 25 -17 25 -19 26 C-18.72137912 21.40275543 -16.70869679 19.27093102 -13.74609375 16.03125 C-11.77434155 13.73748905 -10.12426279 11.32234398 -8.4375 8.8125 C-5.97583748 5.21847272 -3.6723606 2.4482404 0 0 Z " fill="#324961" transform="translate(257,177)"/>
<path d="M0 0 C1.15294668 3.45884004 0.79943888 4.47127724 -0.21484375 7.88671875 C-0.48876953 8.82451172 -0.76269531 9.76230469 -1.04492188 10.72851562 C-1.33947266 11.70498047 -1.63402344 12.68144531 -1.9375 13.6875 C-2.22818359 14.67556641 -2.51886719 15.66363281 -2.81835938 16.68164062 C-3.53793217 19.1234696 -4.26540993 21.56265482 -5 24 C-5.66 24 -6.32 24 -7 24 C-6.67447917 21.98177083 -6.34895833 19.96354167 -6.0234375 17.9453125 C-6.01570312 17.30335938 -6.00796875 16.66140625 -6 16 C-6.66 15.34 -7.32 14.68 -8 14 C-7.23432134 12.41416752 -6.46222035 10.83143506 -5.6875 9.25 C-5.25824219 8.36828125 -4.82898438 7.4865625 -4.38671875 6.578125 C-3.09896854 4.18399785 -1.69084246 2.12223042 0 0 Z " fill="#23384C" transform="translate(177,671)"/>
<path d="M0 0 C1.60080151 4.00200378 0.29279692 7.04556236 -1 11 C-4 11 -4 11 -5.6875 9.5 C-6.120625 9.005 -6.55375 8.51 -7 8 C-5.52071006 3.31558185 -5.52071006 3.31558185 -2.9375 1.75 C-2.298125 1.5025 -1.65875 1.255 -1 1 C-0.67 0.67 -0.34 0.34 0 0 Z M-9 11 C-8.01 11.495 -8.01 11.495 -7 12 C-7.99 12.495 -7.99 12.495 -9 13 C-9 12.34 -9 11.68 -9 11 Z M-9 14 C-8.34 14.33 -7.68 14.66 -7 15 C-7.99 15.66 -8.98 16.32 -10 17 C-9.67 16.01 -9.34 15.02 -9 14 Z " fill="#3C5772" transform="translate(152,354)"/>
<path d="M0 0 C2.25 -0.3125 2.25 -0.3125 5 0 C8.68681197 3.46994068 10.89724904 8.07369196 12 13 C11.67 13.99 11.34 14.98 11 16 C9.16283711 13.52365012 7.33092199 11.04346678 5.5 8.5625 C4.97535156 7.85544922 4.45070312 7.14839844 3.91015625 6.41992188 C3.41386719 5.74638672 2.91757813 5.07285156 2.40625 4.37890625 C1.94541016 3.7557251 1.48457031 3.13254395 1.00976562 2.49047852 C0 1 0 1 0 0 Z " fill="#33495F" transform="translate(165,325)"/>
<path d="M0 0 C1.29743778 3.89231333 0.7290731 5.31632252 -1 9 C-4.125 11.375 -4.125 11.375 -7 13 C-7 8.88245283 -6.22046268 5.50599371 -4 2 C-1.875 0.75 -1.875 0.75 0 0 Z " fill="#283D52" transform="translate(180,660)"/>
<path d="M0 0 C0 0.99 0 1.98 0 3 C-0.66 2.67 -1.32 2.34 -2 2 C-1.34 1.34 -0.68 0.68 0 0 Z M-3 3 C-2.01 3.33 -1.02 3.66 0 4 C-1.40191353 6.99254618 -3.03367489 9.5954611 -5 12.25 C-5.515625 12.95640625 -6.03125 13.6628125 -6.5625 14.390625 C-7.2740625 15.18726563 -7.2740625 15.18726563 -8 16 C-8.66 16 -9.32 16 -10 16 C-9.81523971 11.38099287 -9.20125576 8.78017921 -5.9375 5.5625 C-4.968125 4.716875 -3.99875 3.87125 -3 3 Z " fill="#293D51" transform="translate(243,206)"/>
<path d="M0 0 C0.66 0.33 1.32 0.66 2 1 C-0.06312314 4.66415876 -2.35872176 7.70548128 -5.1875 10.8125 C-5.90292969 11.60269531 -6.61835938 12.39289063 -7.35546875 13.20703125 C-7.89816406 13.79871094 -8.44085938 14.39039063 -9 15 C-9.66 14.34 -10.32 13.68 -11 13 C-9.73147606 11.39400651 -8.460089 9.79027425 -7.1875 8.1875 C-6.47980469 7.29417969 -5.77210938 6.40085937 -5.04296875 5.48046875 C-3.43588623 3.52923089 -1.82959577 1.73725024 0 0 Z " fill="#31475F" transform="translate(158,333)"/>
<path d="M0 0 C0.66 0.66 1.32 1.32 2 2 C1.07084243 3.62978448 0.13135466 5.25368275 -0.8125 6.875 C-1.59560547 8.23238281 -1.59560547 8.23238281 -2.39453125 9.6171875 C-4 12 -4 12 -7 14 C-7.33 12.68 -7.66 11.36 -8 10 C-7.34 10 -6.68 10 -6 10 C-5.938125 9.278125 -5.87625 8.55625 -5.8125 7.8125 C-4.75543353 4.15342375 -2.79449929 2.50788398 0 0 Z " fill="#25384B" transform="translate(147,347)"/>
<path d="M0 0 C0.33 0 0.66 0 1 0 C1.76681614 8.77578475 1.76681614 8.77578475 -0.11328125 11.77734375 C-1.5 13.125 -1.5 13.125 -4 15 C-2.07289294 4.44191344 -2.07289294 4.44191344 0 0 Z " fill="#425C75" transform="translate(297,224)"/>
<path d="M0 0 C2 1 2 1 2.88671875 2.9609375 C3.15097656 3.75757813 3.41523438 4.55421875 3.6875 5.375 C3.95949219 6.16648438 4.23148437 6.95796875 4.51171875 7.7734375 C5 10 5 10 4 13 C1.69 9.37 -0.62 5.74 -3 2 C-2.01 1.34 -1.02 0.68 0 0 Z " fill="#31465B" transform="translate(267,171)"/>
<path d="M0 0 C0.66 0.33 1.32 0.66 2 1 C0.56760415 2.79574993 -0.8711004 4.58646907 -2.3125 6.375 C-3.51326172 7.87160156 -3.51326172 7.87160156 -4.73828125 9.3984375 C-7 12 -7 12 -10 14 C-9.58181281 9.12114941 -7.55070071 7.22040297 -4 4 C-3.236875 3.236875 -2.47375 2.47375 -1.6875 1.6875 C-1.130625 1.130625 -0.57375 0.57375 0 0 Z " fill="#2A3F54" transform="translate(246,196)"/>
<path d="M0 0 C0.99 0.33 1.98 0.66 3 1 C2.06725891 2.12894876 1.12859878 3.25300876 0.1875 4.375 C-0.33457031 5.00148438 -0.85664063 5.62796875 -1.39453125 6.2734375 C-3 8 -3 8 -6 10 C-4.79157144 5.56909529 -3.48331435 3.01887244 0 0 Z " fill="#3D566F" transform="translate(164,687)"/>
<path d="M0 0 C0 3 0 3 0 3 Z M-2 3 C-2 6.60777515 -2.9904432 8.06295544 -5 11 C-5.99 11.495 -5.99 11.495 -7 12 C-6.5206753 7.68607774 -5.2542015 5.83430453 -2 3 Z " fill="#26384C" transform="translate(245,191)"/>
<path d="M0 0 C0 4.38968456 -2.12805101 5.76905739 -5 9 C-5.33 7.68 -5.66 6.36 -6 5 C-4.02 3.35 -2.04 1.7 0 0 Z " fill="#26394C" transform="translate(144,360)"/>
<path d="M0 0 C0 0.99 0 1.98 0 3 C-2.5 5.1875 -2.5 5.1875 -5 7 C-5.33 6.34 -5.66 5.68 -6 5 C-4.06745228 2.9754262 -2.36841312 1.57894208 0 0 Z " fill="#38516B" transform="translate(151,355)"/>
<path d="M0 0 C0.66 0 1.32 0 2 0 C1.75 2.375 1.75 2.375 1 5 C-1.0625 6.3125 -1.0625 6.3125 -3 7 C-1.125 1.125 -1.125 1.125 0 0 Z " fill="#1D2C3C" transform="translate(143,345)"/>
<path d="M0 0 C0.99 0 1.98 0 3 0 C3 0.66 3 1.32 3 2 C2.34 2 1.68 2 1 2 C0.731875 2.639375 0.46375 3.27875 0.1875 3.9375 C-1 6 -1 6 -4 7 C-4 6.34 -4 5.68 -4 5 C-3.34 4.67 -2.68 4.34 -2 4 C-0.86649466 1.98330173 -0.86649466 1.98330173 0 0 Z " fill="#38526C" transform="translate(245,204)"/>
</svg>
