<svg width="42" height="42" viewBox="0 0 42 42" fill="none" xmlns="http://www.w3.org/2000/svg">
<rect x="0.360474" width="41.0854" height="42" rx="9" fill="url(#paint0_linear_122_70)"/>
<g clip-path="url(#clip0_122_70)">
<path d="M20.4021 3C15.5072 3 14.8917 3.0225 12.9684 3.108C11.0452 3.198 9.7352 3.4995 8.58756 3.945C7.38321 4.39573 6.29261 5.10465 5.39267 6.02175C4.47366 6.91982 3.76326 8.00815 3.31159 9.21C2.86516 10.353 2.56078 11.6625 2.47285 13.575C2.38717 15.4987 2.36462 16.1108 2.36462 21.0023C2.36462 25.8893 2.38717 26.5013 2.47285 28.4205C2.56304 30.3375 2.86516 31.6447 3.31159 32.79C3.7738 33.9735 4.38933 34.977 5.39267 35.9782C6.39375 36.9795 7.39934 37.596 8.58531 38.055C9.7352 38.5005 11.0429 38.8042 12.9639 38.892C14.8894 38.9775 15.5027 39 20.4021 39C25.3016 39 25.9126 38.9775 27.8381 38.892C29.7568 38.802 31.0713 38.5005 32.2189 38.055C33.4225 37.604 34.5123 36.8951 35.4116 35.9782C36.4149 34.977 37.0304 33.9735 37.4927 32.79C37.9368 31.6447 38.2412 30.3375 38.3314 28.4205C38.4171 26.5013 38.4396 25.8893 38.4396 21C38.4396 16.1107 38.4171 15.4988 38.3314 13.5773C38.2412 11.6625 37.9368 10.353 37.4927 9.21C37.041 8.00815 36.3306 6.91982 35.4116 6.02175C34.5116 5.10465 33.421 4.39573 32.2167 3.945C31.0668 3.4995 29.7546 3.19575 27.8358 3.108C25.9103 3.0225 25.2993 3 20.3976 3H20.4021ZM18.7855 6.2445H20.4044C25.2204 6.2445 25.7908 6.26025 27.6915 6.348C29.4502 6.42675 30.4062 6.7215 31.042 6.96675C31.883 7.293 32.485 7.6845 33.1163 8.3145C33.7476 8.9445 34.1377 9.543 34.4646 10.3845C34.7126 11.0168 35.0057 11.9708 35.0846 13.7258C35.1726 15.6225 35.1906 16.1918 35.1906 20.9955C35.1906 25.7993 35.1726 26.3707 35.0846 28.2675C35.0057 30.0225 34.7104 30.9743 34.4646 31.6088C34.1734 32.3893 33.7121 33.0955 33.1141 33.6765C32.4827 34.3065 31.883 34.6958 31.0397 35.022C30.4084 35.2695 29.4524 35.562 27.6915 35.643C25.7908 35.7285 25.2204 35.7488 20.4044 35.7488C15.5884 35.7488 15.0157 35.7285 13.115 35.643C11.3563 35.562 10.4026 35.2695 9.76676 35.022C8.98401 34.7323 8.27551 34.2728 7.69245 33.6765C7.09332 33.0951 6.63123 32.388 6.33964 31.6065C6.09388 30.9742 5.79851 30.0203 5.7196 28.2653C5.63392 26.3685 5.61588 25.7992 5.61588 20.991C5.61588 16.1827 5.63392 15.618 5.7196 13.7212C5.80077 11.9662 6.09388 11.0123 6.34189 10.3778C6.66882 9.5385 7.06114 8.93775 7.69245 8.30775C8.32376 7.67775 8.92351 7.2885 9.76676 6.96225C10.4026 6.71475 11.3563 6.42225 13.115 6.34125C14.7789 6.26475 15.4238 6.24225 18.7855 6.24V6.2445ZM30.0319 9.2325C29.7476 9.2325 29.4662 9.28837 29.2036 9.39692C28.941 9.50547 28.7024 9.66457 28.5014 9.86515C28.3004 10.0657 28.1409 10.3038 28.0322 10.5659C27.9234 10.828 27.8674 11.1088 27.8674 11.3925C27.8674 11.6762 27.9234 11.957 28.0322 12.2191C28.1409 12.4812 28.3004 12.7193 28.5014 12.9199C28.7024 13.1204 28.941 13.2795 29.2036 13.3881C29.4662 13.4966 29.7476 13.5525 30.0319 13.5525C30.606 13.5525 31.1565 13.3249 31.5624 12.9199C31.9683 12.5148 32.1964 11.9654 32.1964 11.3925C32.1964 10.8196 31.9683 10.2702 31.5624 9.86515C31.1565 9.46007 30.606 9.2325 30.0319 9.2325ZM20.4044 11.757C19.1757 11.7379 17.9555 11.9628 16.8149 12.4188C15.6742 12.8748 14.6358 13.5527 13.7602 14.413C12.8845 15.2732 12.1891 16.2988 11.7145 17.4298C11.2398 18.5609 10.9953 19.7749 10.9953 21.0011C10.9953 22.2274 11.2398 23.4414 11.7145 24.5724C12.1891 25.7035 12.8845 26.729 13.7602 27.5893C14.6358 28.4496 15.6742 29.1275 16.8149 29.5834C17.9555 30.0394 19.1757 30.2644 20.4044 30.2453C22.8362 30.2074 25.1555 29.2168 26.8618 27.4873C28.568 25.7578 29.5244 23.4281 29.5244 21.0011C29.5244 18.5741 28.568 16.2444 26.8618 14.5149C25.1555 12.7854 22.8362 11.7949 20.4044 11.757ZM20.4044 14.9993C21.1941 14.9993 21.976 15.1545 22.7056 15.456C23.4351 15.7576 24.098 16.1996 24.6564 16.7568C25.2148 17.3141 25.6577 17.9756 25.9599 18.7036C26.2621 19.4317 26.4176 20.212 26.4176 21C26.4176 21.788 26.2621 22.5683 25.9599 23.2964C25.6577 24.0244 25.2148 24.6859 24.6564 25.2432C24.098 25.8004 23.4351 26.2424 22.7056 26.544C21.976 26.8455 21.1941 27.0007 20.4044 27.0007C18.8096 27.0007 17.2801 26.3685 16.1524 25.2432C15.0247 24.1178 14.3911 22.5915 14.3911 21C14.3911 19.4085 15.0247 17.8822 16.1524 16.7568C17.2801 15.6315 18.8096 14.9993 20.4044 14.9993Z" fill="white"/>
</g>
<defs>
<linearGradient id="paint0_linear_122_70" x1="40.733" y1="1.78632" x2="3.26374" y2="39.6501" gradientUnits="userSpaceOnUse">
<stop stop-color="#C13BEE"/>
<stop offset="0.353719" stop-color="#8409E3"/>
<stop offset="0.623728" stop-color="#C7231E"/>
<stop offset="1" stop-color="#F0AA3A"/>
</linearGradient>
<clipPath id="clip0_122_70">
<rect width="36.075" height="36" fill="white" transform="translate(2.36462 3)"/>
</clipPath>
</defs>
</svg>
