<svg width="193" height="194" viewBox="0 0 193 194" fill="none" xmlns="http://www.w3.org/2000/svg">
<path d="M48.25 161.667C57.1325 161.667 64.3333 154.429 64.3333 145.5C64.3333 136.572 57.1325 129.333 48.25 129.333C39.3674 129.333 32.1666 136.572 32.1666 145.5C32.1666 154.429 39.3674 161.667 48.25 161.667Z" stroke="#3B82F6" stroke-width="8" stroke-linecap="round" stroke-linejoin="round"/>
<path d="M144.75 161.667C153.633 161.667 160.833 154.429 160.833 145.5C160.833 136.572 153.633 129.333 144.75 129.333C135.867 129.333 128.667 136.572 128.667 145.5C128.667 154.429 135.867 161.667 144.75 161.667Z" stroke="#3B82F6" stroke-width="8" stroke-linecap="round" stroke-linejoin="round"/>
<path d="M48.25 145.5H40.2083L24.125 105.083V88.9167C24.125 84.629 25.8195 80.5169 28.8357 77.4851C31.8519 74.4533 35.9428 72.75 40.2083 72.75H152.792L168.875 113.167V129.333H160.833" stroke="#3B82F6" stroke-width="8" stroke-linecap="round" stroke-linejoin="round"/>
</svg>
