<svg width="1440" height="162" viewBox="0 0 1440 162" fill="none" xmlns="http://www.w3.org/2000/svg">
<path d="M382.6 7.2291C380.945 3.90506 383.363 0 387.076 0H928.334C929.716 0 931.036 0.571856 931.981 1.57982L1043.48 120.476C1046.33 123.519 1044.17 128.5 1040 128.5V128.5H446.096C444.199 128.5 442.466 127.427 441.62 125.729L382.6 7.2291Z" fill="#031238"/>
<path d="M0 57L515.5 93L467 129H0V57Z" fill="#031238"/>
<path d="M1441.48 135.908L924.82 126.016L978.5 127.043L1471.5 35.9997L1441.48 135.908Z" fill="#031238"/>
<path d="M861 85L1180 29L1254.5 129H929L861 85Z" fill="#031238"/>
</svg>
