<svg width="165" height="164" viewBox="0 0 165 164" fill="none" xmlns="http://www.w3.org/2000/svg">
<path d="M142.313 49.8831C139.117 46.6807 135.315 44.1389 131.126 42.4043C126.937 40.6698 122.444 39.7767 117.906 39.7767C113.368 39.7767 108.875 40.6698 104.686 42.4043C100.498 44.1389 96.6956 46.6807 93.5 49.8831L75.625 67.6498L96.9375 88.8331L114.813 71.0665C118.034 67.8902 120.592 64.1114 122.337 59.9478C124.082 55.7843 124.981 51.3185 124.981 46.8081C124.981 42.2977 124.082 37.832 122.337 33.6684C120.592 29.5049 118.034 25.726 114.813 22.5498L142.313 49.8831ZM20.625 143.5V129.833L75.625 75.1665L89.375 88.8331L34.375 143.5H20.625Z" stroke="#3B82F6" stroke-width="8" stroke-linecap="round" stroke-linejoin="round"/>
</svg>
