<svg width="48" height="32" viewBox="0 0 48 32" fill="none" xmlns="http://www.w3.org/2000/svg">
<path d="M27.852 26.5076C29.0695 28.4035 30.8694 29.8531 32.9813 30.6384C35.0932 31.4238 37.403 31.5025 39.5634 30.8627C41.7238 30.2228 43.6182 28.8991 44.9619 27.0904C46.3055 25.2817 47.0259 23.0857 47.0145 20.8326C47.0134 18.9667 46.5113 17.1354 45.5605 15.53C44.6098 13.9245 43.2454 12.6038 41.6098 11.7059C39.9742 10.808 38.1275 10.3657 36.2627 10.4254C34.3978 10.4851 32.5831 11.0444 31.0083 12.0451C31.827 9.61381 33.352 7.02006 35.8645 4.42006C36.3453 3.92278 36.6087 3.25491 36.597 2.56336C36.5912 2.22095 36.518 1.88303 36.3816 1.5689C36.2452 1.25477 36.0483 0.970582 35.802 0.732561C35.5558 0.49454 35.2651 0.307346 34.9465 0.181671C34.628 0.0559956 34.2878 -0.00570066 33.9454 0.000102997C33.2538 0.011824 32.5953 0.297781 32.1145 0.795062C22.827 10.4201 24.0333 20.8826 27.852 26.4951V26.5076ZM2.85205 26.5076C4.06951 28.4035 5.86944 29.8531 7.98133 30.6384C10.0932 31.4238 12.403 31.5025 14.5634 30.8627C16.7238 30.2228 18.6182 28.8991 19.9619 27.0904C21.3055 25.2817 22.0259 23.0857 22.0145 20.8326C22.0134 18.9667 21.5113 17.1354 20.5605 15.53C19.6098 13.9245 18.2454 12.6038 16.6098 11.7059C14.9742 10.808 13.1275 10.3657 11.2627 10.4254C9.39778 10.4851 7.58313 11.0444 6.0083 12.0451C6.82705 9.61381 8.35205 7.02006 10.8645 4.42006C11.1026 4.17383 11.2898 3.88313 11.4154 3.56456C11.5411 3.24599 11.6028 2.90578 11.597 2.56336C11.5912 2.22095 11.518 1.88303 11.3816 1.5689C11.2452 1.25477 11.0483 0.970582 10.802 0.732561C10.5558 0.49454 10.2651 0.307346 9.94655 0.181671C9.62798 0.0559956 9.28777 -0.00570066 8.94535 0.000102997C8.60294 0.00590666 8.26502 0.0790975 7.95089 0.215496C7.63676 0.351895 7.35257 0.548834 7.11455 0.795062C-2.17295 10.4201 -0.966702 20.8826 2.85205 26.4951V26.5076Z" fill="#737DC0"/>
</svg>
