<svg width="182" height="182" viewBox="0 0 182 182" fill="none" xmlns="http://www.w3.org/2000/svg">
<path d="M22.75 45.5H159.25L144.083 136.5H37.9167L22.75 45.5Z" stroke="#3B82F6" stroke-width="8" stroke-linecap="round" stroke-linejoin="round"/>
<path d="M68.25 159.25C72.4381 159.25 75.8333 155.855 75.8333 151.667C75.8333 147.479 72.4381 144.083 68.25 144.083C64.0618 144.083 60.6667 147.479 60.6667 151.667C60.6667 155.855 64.0618 159.25 68.25 159.25Z" stroke="#3B82F6" stroke-width="8" stroke-linecap="round" stroke-linejoin="round"/>
<path d="M113.75 159.25C117.938 159.25 121.333 155.855 121.333 151.667C121.333 147.479 117.938 144.083 113.75 144.083C109.562 144.083 106.167 147.479 106.167 151.667C106.167 155.855 109.562 159.25 113.75 159.25Z" stroke="#3B82F6" stroke-width="8" stroke-linecap="round" stroke-linejoin="round"/>
</svg>
